/* XPM */
static char *c8e1af6c90984a91878b472aa15f3435mCPDTrdJ5uAhlEM4[] = {
/* columns rows colors chars-per-pixel */
"128 128 92 1 ",
"  c #1E1D1C",
". c #201F1E",
"X c #21201F",
"o c #252422",
"O c #282725",
"+ c #2D2C2A",
"@ c #302F2D",
"# c #32302E",
"$ c #353432",
"% c #383735",
"& c #3A3937",
"* c #3D3C3A",
"= c #403F3D",
"- c #42403E",
"; c #454442",
": c #484745",
"> c #4A4846",
", c #4D4C49",
"< c #504F4D",
"1 c #52514E",
"2 c #555451",
"3 c #585654",
"4 c #5A5956",
"5 c #5D5C59",
"6 c #605E5C",
"7 c #62605E",
"8 c #666461",
"9 c #686664",
"0 c #6B6966",
"q c #6E6C6A",
"w c #706E6B",
"e c #72706D",
"r c #757370",
"t c #7C7A76",
"y c #7D7B78",
"u c #83817E",
"i c #868481",
"p c #888683",
"a c #8B8986",
"s c #918E8B",
"d c #93908D",
"f c #979591",
"g c #999793",
"h c #9D9B97",
"j c #9F9D99",
"k c #A19E9B",
"l c #A4A19D",
"z c #A8A5A1",
"x c #ADAAA6",
"c c #AFACA8",
"v c #B1AEAA",
"b c #B4B2AD",
"n c #B7B4B0",
"m c #B9B6B2",
"M c #BDBAB5",
"N c #BFBCB8",
"B c #C1BEBA",
"V c #C5C2BD",
"C c #C9C6C1",
"Z c #CDCAC5",
"A c #D0CCC7",
"S c #D2CEC9",
"D c #D5D2CD",
"F c #D8D4CF",
"G c #D9D6D1",
"H c #DBD8D3",
"J c #DCD8D3",
"K c #DDD9D4",
"L c #DFDCD6",
"P c #E0DCD7",
"I c #E3DFDA",
"U c #E3E0DA",
"Y c #E4E1DB",
"T c #E5E1DC",
"R c #E8E4DF",
"E c #E9E5E0",
"W c #EBE7E2",
"Q c #ECE9E3",
"! c #EDE9E4",
"~ c #EFEBE5",
"^ c #F1EDE7",
"/ c #F3EFEA",
"( c #F4F0EA",
") c #F6F2ED",
"_ c #F8F4EE",
"` c #FBF7F1",
"' c #FCF7F2",
"] c #FCF8F2",
"[ c #FEFAF4",
"{ c #FFFDF7",
"} c #FFFEF8",
"| c #FFFFFF",
/* pixels */
"o+oOOOOO+#$$$OO+$$%@O+Ooo+%;,;+O|||||||||||||||]||||}|||||||||}Y+OOOOoOoOOo+@#@$+oooooooOOOOo  o||||||||||||||||||||||||SV|||T||",
"@+OO+@+&;&#$=#++$+ooOOooO+#%++Oo|||||||||||||||[||||{||||||||CC|O+#OOOOooOoOO#-:$OooOoo.o.X+++Oo!DE|||||||||PV||||||}|||||||}|||",
"$+++++%4;>,=*+Oooooooooo+%+oO+%O||||||||||||||||||||I|||||)|x|||*%%&**#&$+oO+$-&-#+&$OOXX#;++$+oTEE|||||||||||B||||||||||/||||||",
">&$$*>:1+OOooOoooOOoOooO++OOoOo&||||||}`||||||||||`H|||||||T`|||&=*;::2,;=$*$&**,>&&$$@+%&&%OXX.||||||||||||(||_||||||||||||||_T",
"=-@$+#OOO+OOOOooOoooooOO@++#OOooV|}||||||||}|||||||{|[)T|||[|||}&$@++OO+%:>*&>,5704;22,&&OoOXoOX|K|||||||||GY|||k||||||||||_|{GE",
"$#++++OO+OOOoOOOOOOooOOo+oOOooO+G|||||||||||)||||||)|||||||c||||&<>%@+O++OO+$%@$=$++$+oooXXoX+Xo|U|||||||||}})`]C||||||||||||||}",
"++OOOO++++OOOOOOOOo+$$+#ooOoOoOo[]|||||G|||I!I|||||`||||||||||||OO#$-;>@+ooO+#=+O+oooOoooXXXooXoD}|||||||||Kar(||||||||_|||}||||",
"#+++$O+O$OOoOOOOOO$@*>$OooooooOO|||||||G)I`|C}|||||||||[|||'||||OO+O$@%&#+OOOO@+OO+oO+OXOoXXooooV|||||||||{|_|_|||||||Z|||||]|||",
"O#&*-;=#%&+OO+@#-=;&$@+OOoooooo+|E|||||Q||||Gb||||||||||||||||||O+#=*+%#OO+O+O+$OoooO++ooooXoXoO[|||||||||]!|||G|||||||E||||||||",
"O++OOO+@$,-:<*,<*->$&#%oooooOooo|c|||||k||||}|V|||||||||||||||||$+&+@OO+OO+oOO@O$+OOO@oooOoooooO||||||||||||H]|||||||zPA|||[||||",
"OOOO+++OO++%**31;,-=$+$oO+OoOooO|D||||(q|||||||||||||||||M||||||+OOOOoOoooOo+oOo$+OOO++oooOOoOoO|||_||||||||||||||||||^|||||||||",
"OOO@&&++OOO+++@&#$%>:*&$$$oooooOQ!|||||l||||||||}|||||||/|||||||ooooOoooooooOooOO-ooo@#++oooo@Oo|||||||||||||||||||||LU|||||||||",
"+O+$%#+O++++OO+O+$*%-;;&&$OOOOoo|||||||K||||||||Y[||||||D|||||||oooOOoooooOOOoO+@&$#oo#$+ooO+OOo|||||||||||||||||||}GBZ|||||||||",
"OO$#O+OOOO+OO++OO++;##->*@&>;$$ON|||||{}||||||||[|||||||`|||||||OooOoOoO++OO&O+oO&;$ooO+@OOoOOoo|||||||||||||||||||||E[[]|||||||",
"O$#O++OO++OO+#ooO+**++&&%$;:,;$*D`||||}||||||||||{Z||||}|}||||||OooooO#$&&#oO+ooO@*oOooo++Oooooo|||||||]|||||||||||||||S||||||||",
"O$$+OO+OOO+OO++++$;&*&OOO+o+#*$#}|||||G|||||||||||`^||||||||||||oooo@$#OoO+ooOOOoO*+O+oOOooOooOo|U|||}|N|||||||||||{||}c^|||||||",
"+$>-***@+@++OOOO+OOoo#oOoOoOoooO||||||}K||||||||||{]||||||||||||Oooo++oooo+oooOOoo+OoOooooOOOOOO|C[|S!`D|||||||||||||||SS||C||||",
"$$:&*%%OOOoOOOOO+OoOoooOooOoooO+|||||||{||||||||||)_||||||||||||oooO@oOoOooOoOooOO$+O+oOoooOoOOo|CTB|||||||||||||J|||||KZcxB||||",
"$%@++@+@&+O@+OoOooooooOOOoOooooo|||||[|||K||||||||ZC]|||||!|||||oXOOooOXoooooOOoOoOo+#o+oooOOOO%Gy|||||||||||||||||||||||FY(|(Q|",
"*>*O#$**-$%*$+OOooooOoooooOooooo||||||||||||||||]VK|||||||||||||ooO+ooooOo+$@OOoooooOooOoooooO+#[!||||||||||||||||||||||||||||)E",
"++++$@O#$+o++#$$#o++OooOoXoooooO|||||)|||||]S|||||||||||||||||||oO+oOOO+#oooooo%OOo+ooOOoOooO+Oo||||||||||||||||||||||||||||||||",
"OooO+OOOO$@OOooo+OOO++OOoo+OoooO|||N)||||||||||||||||||||||||R}|oOoooOooOooOoooOo+O+OoooOo+Ooooo||||||||||||||||_|||||||||||||||",
"OOOOooo+OOOOooooXoooOoOOoo+oooO#||||||||||||||||||||||||||||||||X.XoXOooOoooooooooo++Ooo+o++OooO||||||||||||||||||||||_|||||||||",
"ooOOoOOoooO+++ooXXXXooooXXooooO$||||||||||||||||||||||||||||||||XXXoooooOOoooOOoOooO@oOO+Oo+OoOO|||||||||||||||||||||||||||||}||",
"ooooooooXXooXX+oXOoO@XoooXX+$$+o|||||K||||||||||||||||||||||||||XoooOoooooOo++oOooOo+oo+++OOo+Oo||||||||||||||||||(^Y|||||||||||",
"ooOooXoooo o O#*+O$*O o.oo+$+O.X||||||||||||||||||||||||||||||||XXooo+oooOoo++OoOoooOooOo+OOOOOo|||||||||||||||||)AgmZV|||||||||",
"Xoooo.ooXOX  .oX#+OooOo oooOOooo||||||||||||||||||||||||||||||||oOo++Oooooooo++OOOooOOoOOoOOoooO|||||||||||||||||Vl}|||[]|ZUD|||",
"OooXo ooXo  ... o o.o%@XO+o XXoo||_}||||||||||||||{|||||||||||||XXO*&%+O+OoOOOoooOOooOoO+@+#Oooo|||||||||||||||||SK|||||||__M!|`",
"+O+%O . X o   . ooOOOooXOX oX Xo||||||||||||||||||||||||||||||||XXoO+@$+++OOOOoOOOoooOO++$+O+#OO|||||||||||||||||B|||||||||||||D",
"oO+$$+o   XO    ..o oO  .o  oXo.||||||||||||||||||||||||||||||||oXooooO%*+Ooo+O+o+oOOOO+$+OO+@$+}||||||||||||||||/||||||||||||]|",
"  oXO@X   X  oo. o   OO+Oo  XXXo||||||||||||||||||||||||||||||||o$@#@#+++O+OOoO++O+@O+@&$#++O+OO^|||||||||||||||H}||||||||||||||",
" .  o;OX..         o  XXOoX  OO+||||||||||||(|||||||||||||||||||+-&+@ooOO$++ooOoO+O+&++&O++$&&+O|U||||||||||||||C^]|||||||||||||",
"||||||||||||||||]|||||||||||||||XX.oXOooooXXXoX ooXoOXoo oXoXXoX//|}|||||||||/{|||`|||RY||||||||O+#OoooXXX.XOX.$%XO+.oXoo+.XooOo",
"|||]|||[}|||||||||||||||||||||||+oooOooXoooo XX. X + .XXOoOo.XXo||R/||||||||||||||||||V|||||||||oO$&OO++O.Xoooo;+oXOOOo.+o..oO o",
"|||}I|||||||||||||||||||||||||||XoXXoXXXoOOOOO$OXoo  .OO.oOOXooO||||||||||||||||||||||k|||||||||+$+o+OoO++++O#$%oO++OOXXX oooO. ",
"K}|||}^_||||||({[!KS||||||||||||O*ooXOooooooX.XOO+OOo+OO+$%%Oooo||)||||||||||||||}|||{k(!|||||||OOOOO$+ooOXoO$;$+OOXoX.o XOo.. o",
"L||||||||||||||b|`|`||||||I|||)|o+XoXooXoO+O+oXoOO+$*%OoooO*=oOo||||||||||||||||||||||_FK|||||||#*,,=+*@oXoo.oO++#++O+++OX. o.+O",
"|||||||||||||||I||||]|||||||||}| O#OoO+OooooooOoo++Oo+$-=,*<1*++||||||||||||||||||||||||I|||||||%&$%+++@OooooOOo+ooOOOoXoooO#++O",
"||||||Ea|||||||T|||)_|||||||||||..o#&%$@Ooo@OX$;$oXXXoXoX+&11;::||||||||||||||||||||||||||||||||O++*$@@+%oXoooo ooooOoo . o+   o",
"||P|Z(|PC||||||l||||||||||||||||Xoo+*O++$$%*&;*+ooooXoOOoo+oOo+o|||||||||||||||||||_|||||G||||||OOO+%*@oooXXX.oX+Oo  XoX.+oo.   ",
"|)S|||||u)|||||c||||||]|||||||{|XXXo;,*>;&@#$%O+O+OOXXoooooOooOo||^||||||||||||||||||||||]eP||||OO#$$OooooooOoO&=+XXoX#$O%o+o.XX",
"I|||||||FC||||}|||T|||||||||||||oo+oOO$*$$>%@+Oo#++oXoOoXooooOOO!}{|||||||||||||||||||||||{G[|||O@$@+OOoOoo#Xo+%<>&-;;<=-;&&:*%$",
"||||||||/Z||||||||||||||||||||||;%$$%+=&$,:++O+%OOooXOooOOooOoOo|TE|||||||||||||||||||||||{w)|||OOO++OoO+OoooOO$O#;>;+++-%$,02>$",
"||||||||[_||||||||||||||||||||||ooOoOOOOO#2;$+++oOoo+oo#OOOoOOoo|]|})|}||||||||||]P|||||||/|(|||O+OOOooo@OOOo$&;$**++++*&@oO +$+",
"||||||Z]||||||||||||||||||||||||Ooo+ooOOO+%,;**+oOOooooooOOoooOO|||QD|||||||||||/__K|||||||||}|Z++OOOOoO+Ooo%$,4;&@$o o+#o Xo&o ",
"||||||V|||||||||||||||||||||||||+O+$&@$%$&&=5,$O+ooooooooOoOoOoo|||I{}||||||([|Ga}|aZ||||||||C`V+OO+OOOO++$O+-=>%;;5:%###+#o-$+O",
"|||Q|![|||||||||||||||||||||||S(OO+O@>$+OO++@>;+OOooO+oOoOoooooo||||Z||||||`I[QV/||`f|||||||||eH#++$+OOO+oooO&3*@#&OooO$+ooO+X  ",
"/|[biv)|||||||||||P|||||||||||||OoOOo@o++$;**$#$OOOo+OOOoOoooOoO|||||||||||||||||||||K||||||||TC#+#@+++O+OOoO$**$*+Xoo  oXOO.+oO",
"ZTKZ/v|||||||||||Eb|||`|||||||||ooooO+OOOOO+$$*;;$OoOOOoOOOOoo@;||||||||||||||[||||||}]||||||}|}+@+++*-%$%+oo+-%$+Xooo.  .oooo=%",
"ZD|}||||||||||||||[|{||!||||||||oooOOO+OOO@;,;*%$-*O+ooOOO+###;2|||||||||||||||||||||{I|||||||||+++++O+@$;-%%&;$$$oooo  o@oo$$.X",
"|B||||||||||||||||||||T{||||||||OoOo+OO+O$>,:;=$$$>:&OOOoOO+**>%||||||||||||`|||||||||||/||!||||OOOO+OO+O++&,,;-$oOoXo.  Xo$+X+X",
"|||||||||||||||||||||||JE[|}||||OOO+oO+@#+@+$>;%%&*;,%+OOOOO#$+O|||||||_||T[T||||||||||PV{|[||||O++++###$+$$$OX+++&oXX X.ooo oo ",
"|||K|||||||||||||||||||||[!|||||oOOO+*&@OOO+++$&;:-&*&+OOO@$##Oo|||||{||||^|{||||||||||{V{||||||++#+$+$#O+-Oooo@oX+ooo.o+X + Xo ",
"||||{|||||||||||||bT|}|||||T]|||OO++#O+++OO$&&*;2;++OO*%+O$$+OOO|||||||||||D)Q||||||}|||GD[|||||;--;,**+&1;&+OOooo+OOXXoO  ...XX",
"|||||||||||||||||Rc}||||||||)bD|OO++#++++@@$+$+;7>$++@+*-*+OOO+O|||||||`/||Q_/|||||{||TINb||||||;:=41,*$;&#$OOoO+#OooO++OooXO+oo",
"||||||||}||||||[([)||||||||||QQK+OOO#+O+++O#%;&4,:*##$+O++++OOOO||||||||||||KM]||F{D|VK{|||||||(,-48;O+*#O+O#%ooXXoOOXoX+o%Oo+++",
"|||||||||||||||I||/|||||||[|||||+#+O+$*#O++OO+%=**%@++++OOOOOOOO||||||||||||||QI|)]||||||||||||D%+:**+&&;=-:2*&%O#O+=%%&$#%$&&$O",
"||||||||||||||||||!^||||||||||||$@OO+O+%$$#++++OO+++OO++-;&&#OOo|||}||||||||||||||||||||||||||}|%*%+@++++$%&+#$$@$+++#%+&+o o.oo",
"||||||||||||||||||cb|||||||||||T+O+O+++*-;%$++O+#@O++O+$$O$%#OOo|`}||V||||||||||||||||||||||||c|$#@%++$&**++#OOO+&*&$-@OO oXoXX.",
"||||||||||||||||||D`||||||||||/`O+OOOO+=;:$$#O@$+@#@+%&:+++@=&@+||||||Z|||||||||||||||||||||||S|*&#$#*;-;1;%@O@OOOOO++XOo o  oO ",
"|||||||||||||||||||(|||||||^||}|O++O++$O#+++$OO+#++#-;1<,;:,48,-|||||||E)|||||||||||||||||||||I|O+OoO+O+;$++##@++o o  oOOO+  .X ",
"||||||||||||||||||[||[||||||{}||oOO++++++OO++O+O++++###$#@++$$#=|||||||_d||||||||||||{||||||||||OOoOooo+-%#%**%#*-@#o$+o+oOOoo O",
"||||||||||[||||||||T||||||||Z|||OOO$*&%+OO++++++OO++@+$#+$O++OOo||||||||r|J|||||/|^HDZ}|||||||||OoOo+++*+oO+O+OOO$%$oooO.#$oo.oo",
"|||T||||||||||||||Tu||||||||||||@OO@#%%+OOO+@++OO+++O+++OO++++#O||||||||D|_|||||}DlCKB|||||||||[+ooooooOooooXoO+$$%+oXO&&&+O+ooO",
"ooO#$+ooXooXXoXXXO++oO+OOo@+OOO+|||||||||||||||G|||||||||QV|||||oo++OOO;&@*#o.oOo%%&-;,85-#+O+O+|||{||Z||||||||||_|||||||||}||||",
" .ooOXO*$ooX.X+XoooOoOo+O++OOO+#|NV||||||||||||||||||||{Bb||||||oOoOOO+<+@o+O%OOo@O%$&*5*$+++Oo&|||||ZR||||||||||||||||||T|)||||",
"OOoX..oo.X+Oooooooooo+oo+$oOO+O$KD|||||||||||||||||||||TuZ||||||$@++%&*:%@$$+O$*$+$#+oo++$$OoO++|||||V(||||||||||||||||||||(}|||",
"$XXX XoXo.oooO+#OOo@O#++%+o++OO@M||||||||||||||||||||||[``||||||++OO+@$*%o&&$$&;*$&,=+O#oXooOO$=|||||j||||||||||||||||||||{|||)|",
"#OXoo+oXXXOo.X#OoooooOOoOOOOOOO$|||||||||||||||||||||EE||||!/|||=#+$+O++ooX.oO$%**-3:&+%#OoooO++V|||Pb|||||||||||||||||||||/||S}",
"ooX.X. oooooo++XoXoXoo+;+O+$$%+#[|||||||||||||||||[|||^|{|!||]||r8,,&$#++$$+%-*;&:>5>;;%*+OOoooO)|||f||||||||||||||||||||||G[_/|",
"++@OoOOOOoo++$OoXXoo+oOooOoooOoo|)||||||||||||||||[|||||||EI|v(E*&$@#&+oOO OO@#+%+**#$+O+O&*$$O+|||||||||||||||||||||||||||GQ|||",
"oo#232-$#oO&&oX..ooooooo+oOooooO||Dd!||||||||||||||||||||||||T||%+&%&%*&-&$$+$+%$++#%$=++O+#+++*||||||||||||||||||||||||||||||||",
"oXo+*<,4,:*;OXXXO+O++++oo+oooooO||_|}|||||||||||||||||||||K|||||:;-=#++O+&>,;23:,>@O@Xo+oOOOOooO||||||||||||||||||||||||||||||||",
"ooOO+O.oo  ++. ooooOoOOoooOoooOo|||||_||||||||||}|||||||||}|||||;&$$ooooX+=*,$+OOoo oooo+$$%&++O||||||||||||||||||||||||||}|||||",
"oXXXXo.o oooOX.oOXXXXoooooOO+@oo||||||!h|||||{|||||||||||`||||||+OOo++#%#$*#oOoo..X.O.oXoo+$$&+O||||||||||||/{T|||||||||||{|||||",
"oo ooX.oooooXX .OooooOXXoooo+@+o|||||||SM|||]GY||||||||||}||||||+#@&$$$*$+O+O .o XXXoO+*oooO+%$@||||||||||}|{S/`||||||||||||||||",
"oXXXooO#$+OOO#$+$$+ ooXooXXoo%&@|||||||||}|||||||||||||||C`Y||||*1>;*;Xo++++OooOXoooooo+oOO+OO+=B||||||||||!|mS|||||||}|||||||||",
"oo.oo*1,%#+%@O@&#&*&%OOooXooOXo=lG}|||||||{|||||[||||||}||||||||85;&#Oo+=+OXooOoXoOOOO+O$+$O++++Gk|||||||)|YQ[b|||||||||||||||||",
"o.oo#;*->++oo+&*&>&:*=$@oOOooooo!]||||||/||||||||||||||}|||||E||%$o+ooXOOOoXoooXXXXXoo%#o+ooO@*,|||||||||DYS||D|||||||||||||||||",
"ooO=+%;*&O+ooo+>,;;&OO+==+OoooXX||H||||||||R||||||||||||Q|||||E|+OoOooX+X+ooXooOoXoOXooOoO%$$;&&||||||||||/||||)||||||||||||||||",
"o$$%$=&;$#&%oOO*#+@O+o+O%$$*%+X.|||!||||||||F|||||||||||)||||||`oX+oooooOO$ooOo+oOOooOooOo+,83;$||||R||||}|||K|||||{|||||||||}||",
"+o+-,-*+o=&+++$$++oXoXO+$;&$$*$O|||(|||||||||{|||||||||||[|||||NoXo@oOOooO&oOOooOooo+@ooO$;-==&O|||[|||||||||(E|||||||||||||KT|_",
"++-3*+oO*:,%o+oO+*O$oOoo##&$++OO|||||||||||||{|||S|||||||C||||||oOO+oo+oOoO#+OooOOOoO+oo+$$+OO++|||||T||||}||I|||||||||||||_|)Tn",
":<52;%++#$1&+$%#+#oXoOOO++$O++*&|||||||||||||||||)|||||||b||||||++OoooooooOooOoOO+oOO#++#OO++OO$|||||/|||||}|||||||||||||)|||/||",
"*;<&#XXO$*&&:>:-+ooo+ooO#&;$#;%%|F|||||||||||||||Zc||||||Vm|||||&-@+oOOoooOoOoO+OooO&8;$+OOOOOO+|||||]|||||/|'||||||||||}|K}}|||",
"%>2*%*$O#*++O;**Ooooooo+*oO$$%+&D}|||||||||||||||Sm|||||||||||||XO%#O+ooOOOOOOoO+O%,,:+OO++O+++=|{||)||||||||(||||||||||||||||||",
"45&+OOooo.oO++;&oOoOOO%&$+%$+O+,T||||||||||||||||KbD||||{|||||||+O@:1@OOOOoOOOO+##,2@%OO+++O+-&;|||!|||||||||||||||||||E`|||||||",
";$OooOXOXoOoXo%3*+OOOoo+#;*O+O$&}|||||||||||||||||c)||||||||||||oooO-$%+@&&&=*+$%%&&+$+OO++++++&|||]G|||||||||||||||||I]||||||||",
"$+O+O+Oooo+XoO$&#++O+Xoo+&++%$$&||||||||||||||||||BQ|||}|||)D|||oooo*+$+OOoO+O+#++&$++O+%OOOOOO+||S!)]|||||||||||||/]|||||}|||||",
"OoooOoXo@++ooooO Xoooo+++$++&:#@||||)|||||||||S|||KK|||'|||KE|||#+oo++OoO++@$*>#=%&:&+O+#+$#O+++[K)|||||||||||||||||||||||||||||",
"ooooOOooX+++Oo++O&*;:-;%#+++*-$+|||||||||||||||||||D[|||||/)||||+O+O;#++>$OOOOO$**&;&#@OOO++++O+|T||||||||||||||||||||E|||||||||",
"+$#+O+++OOO+O#**$$$++O+$$&;5>*&%|||/||||[|||||||||||]|||`|||}|||o++$**@%2++OOOOO#OO@=#++OO@++*$@`|||||!F||||||||||||||{G||||||||",
"o+$OOooX++Oo#o++%$##$+$+++:*+$$,|||E||||||||||||||||G{|||||||C||oOOO++#*>$#OOOOO+OOO*&&@OOO+O$++|||||||||DC|||||||[||||||{||||||",
"+>;OOooo+>-+&&<=;%=*#$#++@3+&,$#|/E|}|||||||||||||||_H|||||||S||OOO+O$+*$OO+OOOO+++#$*-###+O+O+O||||||||MdBG|||||||]||||||[|||||",
"*53&@$+OO:,+o##O+O+%*&OO@++$O*$+|V||J|||||||||||||||IaV|||}}||||+oOO+++%++@@$&%%$@%%++*%++OOOOO+|||||||||VS|||||||||||||||||)|||",
"-&<+$#&$->2:$O+Ooo#o$+++%#@Ooo$%}|||||||||||||||||||)kc||||}||{|o+OOOO+OO#$&-*$++O+&$+%;%$O++OO%||||||||(|`|||||||P||||||[|||KM|",
"^}|G|{|||||}|||||||||_bR||||||||$$;-*;&351-*&*@$+OO+$$+OooOOOOO+|JT||||||||||||(|!PD|||m|||G||||%$##+O+O@+$OO+++#@+$$$+++++O+++&",
"||||||||||||||{||CQ`^T}||||||||T%:;%$=*&,,2,,-+OOOo@*o+ooOOOoO@+|||||||||||)||DkfD`||||{||||||||#++##&#O++*@+@OO#+O+O+O@$+@+OOO+",
"||||||||||||||G|||||||||||||||||=2,=*,-&*&$#$$+OOoo+OoOOO+OoOOO+S|||||||||E}}}E||/||||)||||}||||+@OOOO%%@&@&#+OO+OOOOOO+O+$O++@O",
"||||||||||||||||||||||||||||||||+*>&-,13+ooOO$+OOoOOOoOoOO@+OOOO||}||}||Ylf|||||||||S}||||||||||O++$$%&>&&$*+OOO+OOOOOO+OO-OO+oO",
"C|Q}||h|||||[|||||||||||}|||||||O+&:*@<%;=#$%&+#OOO+OOOO+OO+O+oO|||||}]}mm||||||||||Y}||||V|||||+O&:>=**$$$-%*%+++O+OOOOOO$OOo+O",
"Z{||||||||||F[|||||||]|(`|||||}|ooOo+OO+O:$+#%%$+OOOOoOOOOOOOO$;|||||C||)|||||||/||}||||||||||||OOO@+#&#+%##+*&%OO@#+$OO$%%+@O++",
"}|||||||||||)||||||||||{||)|||||OOOoO++$,2-%**$OOOOooO+OOO++#,,:|||}|_||I||||||/|||[||||||||||||oOoO&%;**,;*&<&#@#++$#@%--OOoOOO",
"||||||||||||)||||||||||||||D]|||OOOOOO+14,;&$$+O++OOOO++++--**15/||||/|{S|||||||||^|||||||||||||oOoo+%*#&$##O++OO+++++@+OOO+OOoO",
"I|||||||||||V|||`||||||||)||VV||OOOO+O+2;$++&&#Oo+OOOOO+;5*#+@#%|||||||||||}bF||||||||||||||||||OoOooo++#&$$-%&OoOooOOoOOOOO++O&",
"b|||||||||||R||||||||||||}GTQRZ|+O++$O%$$%#&%#@OOOOOO##$$++OO+#%Q||||||||||Q_D}|||||E|||||||||||ooooo+#+++#OoOO#+O$$@OOOOOo++O+$",
"M||||||||||PD|||||||||||||Ss`|R'O@+++O%$=:-$+$%++OO+*:-OOO+$+++=G|||||||||||||||||||||||||||||||ooooO%$+2@OOOo+&$$*%ooOoOoooOOo$",
"T||||||||||/||||||||||||||E{D|||#OOO@$%#+#=$+%$+O+*%$#*;;%&%$@&,|||||||||||||||||||||[||||||||||oooo&*Oo#$+O+OO+%++O++OooOOooOoO",
"K||||||||||[|||||||||||||{|||GR|$&;**$$++$*$+*#+$$*%$$&*$++++O$+||||||||||||||||||||||||||||||||ooXO$OooOOOO+O+O+oOOOOO++OoO+$$>",
"|||||||||||`|||||||||||||||||Vl)++#>*++#O++%*#%@&O+OOO+++OOO++OO|||||`)||||||||{||||||||||||||||OX.+oXXO+ooo+OoOoo#OoOoX+OO+++++",
"||}||||||||]|||||||||||||||||`|/+O+%-$##+++@#%$$$$%#$%$&$$&$$OO@|||||lC|||(`(|||||||||||||||||||oooOoXoo+oOoOOooO+oooooooooO$#+O",
"|C_|||||||]||||||}|||||||||||K|^+#+=*#$%$+++@;,$@#OO+++*$$*$****|||||mI|||||CCID||||||||||||||||ooO+oO+OOoooOoo$=+++OooXXo+$@**,",
"|IC|||||||||||||^|[|||||||||||||O+*-:+++++$$$&#&*>%+O+O+O+#++=:@|||||tD{|||||}`|J|||||||||||||||o+. XOoOoO%+OoOO*O++++oOoO%&++=5",
"||_l||||||||||||||||||||||||||||OO+:*+++@=-*$$#+O+&&*#+O+++++&,;|||||b6B!|||||||!||||}||||||||||O-X OOO#+oO+O+ooooXo+oXXooooo++$",
"||!iT|||||!|||||||||)}||||||||||++O+O+@#;68>+&$$++O+$*,>>&$&$-,2|||||nlN|||||||||||||||||||||||| OOO@OooOooooooOoooooO@;%&+Oooo@",
"}||b/|||||D||||||||||Q||||||||||O++++++$:&4052:*$++#+%$%*%#+++*>|||||Dv|||||||||D}|||||||||`|||| XXX oXooXoOoOooXOoo#%&#OOoOooOO",
"|||YV|||||[||||{|||[|[K||||`||||O+++O++%@@;497>=##@+$+++++$$*%%>|||||{D|||||||||V||||||[V|/||||)OOoo   X.XoOoOOoX+*-;oooO+XoOooo",
"|||}v||||KR||||'|||||||`E|||||||++#OO+$#+#+@-15q5-*;#O+OO+OOOO+*|||||]_|||||||||I}|||||!LT^DbMp_oo$ XoXoooooooOoOO$$oXoOo$XoooXo",
"|)||y||||VE||||]||||||||DH||||||+*;-*-++OO+@%,882&#+O#OOO@OOOO+@|||||TY|||||||||||||||]sD}|Sm|||X o  +O+OoooXooOOooooXooX+O++Ooo",
"`||[B}|||Z|^|||P||||||||)B/|||||O+#><:+++O++$%;*,;*@+OOOO+OOOOO+||||||Z|||||||||]||||||||||||||| Xoo.XoOoo.ooOoOoO+ooOO++:;&o++O",
"||||)!|||P|||||}||||||||||(|||||OO&,=-$++O+++%;,5142&++@OO+O+OO+||||||F|||||||||S|||||||||||||||   X .XXo.ooOOOoXO$&$@+$#>1$O+OO",
"|||||}||||M}|||||}|R|Q|DG|DI||||O+%$+++#@OO+++O%=**;>*%+O++O++O+|||||}S|||||||||^/||||||||||||||XX  X.o.oOXXoo@O@+$*;*+o+$;<&++o",
"|||||/|||||||||||||||||(||}|||||O$&O+++O++O++O+%*;$*$-;;+OO%OOOO||||||{||||||||||||||||||||||||| o  oXooXXoooO#-;=&#$*,$#*%%@+oO",
"||||||||Y|||||||||||||||||||||||+@OO++OOOO+++#+#$=-*#*$*+OO$+O+O||||||m|||||||||}||||{|||||||||| O.   o++oXo@+#*:,;:>-#+O+O;##@+",
")|||_Qc(I||||||_||||||||||||||||;>*++#+OOO+O$@$$#$>*=+@+@$$++OOO|||||||||`||||||!|||||||||||||||oXX ooO+++*%@&2>-;%$;#oOo+#*$**+",
"|||||[S|`||||||||||||||||||}||||+**$$$$+#OOOOOO%**<94-*$@+++OOOO|||||||||||||{||D}|||||||I`|||||  oXo++++$O#$###+OO&@OOOo&O+1%OO",
"|||||||||||||||]||T||})||||||||{OOO++$@&%++OOOO+O++*2-#OO+OOO+OO|||||||||||||}||||||||Z|||||||||oooooo$OoO+@$+%&$#++&+OOO$++*$oo",
"|`|||||^||_S{||_H/u!|CC^|!E[||||$+OO+$@$*#OOOO++OO++,2&$%++O++OO/|||||||||||||||||||||||||||||||Xo O+Oo XXX+$%+$$oOo+oOOO%OO@*Oo"
};
