/* XPM */
static char *result[] = {
/* columns rows colors chars-per-pixel */
"128 128 80 1 ",
"  c #161615",
". c #181717",
"X c #181817",
"o c #1D1C1C",
"O c #201F1F",
"+ c #20201F",
"@ c #232323",
"# c #282726",
"$ c #282827",
"% c #2C2C2C",
"& c #322F2E",
"* c #33302D",
"= c #333333",
"- c #3A3632",
"; c #3E3A35",
": c #3B3B3B",
"> c #413C37",
", c #433E39",
"< c #46413B",
"1 c #49443E",
"2 c #444444",
"3 c #4B4641",
"4 c #4E4943",
"5 c #4C4C4C",
"6 c #514C46",
"7 c #544E48",
"8 c #56504A",
"9 c #59534D",
"0 c #545454",
"q c #5D5751",
"w c #5E5852",
"e c #5C5C5C",
"r c #625B54",
"t c #65605B",
"y c #6B645C",
"u c #70685F",
"i c #646464",
"p c #6C6C6C",
"a c #756C63",
"s c #786F66",
"d c #706F6F",
"f c #797067",
"g c #7C736A",
"h c #747474",
"j c #787777",
"k c #787877",
"l c #7C7C7C",
"z c #80776D",
"x c #81786E",
"c c #857B72",
"v c #887F75",
"b c #807F7F",
"n c #8A8076",
"m c #80807F",
"M c #8D8479",
"N c #90867C",
"B c #93887E",
"V c #848483",
"C c #888787",
"Z c #888887",
"A c #8B8B8B",
"S c #968C81",
"D c #998E83",
"F c #908F8F",
"G c #9B9186",
"H c #90908F",
"J c #9E9389",
"K c #939393",
"L c #989797",
"P c #989897",
"I c #9B9B9B",
"U c #A1968B",
"Y c #A4998D",
"T c #A79C90",
"R c #A99D91",
"E c #A3A2A2",
"W c #ABABAB",
"Q c #B2B2B2",
"! c #B9B9B9",
"~ c #C1C1C1",
/* pixels */
"aaaagggMVhjMMvgvGJJSHNMJGcGNDSJUIIJRTPJUGMgcjsxJJJJUUvBxMSMgaggicDJBJDsvjccgxggadplMMMcMngcvlscgMDGSMvcglhffkGJxBvzsjzffzxsfBfrr",
"gPLAKPEPEAHPPFHZFAKmjmILkFAWAKWQW!WIILAHmhVZVVZCKlKKbkVedmVACk5avPEKAHKPIPKIKiKChAHmbZAIAimAbhmCCCmZVlkkVKHKKILHIPPIHA0kKHpjlpq8",
"zKLKIPKLKVLFILIFAKKAIdHpAEQQKWE~I!AIEFHPKCAHAAKLAVAHpkkhVjIIZ0=rBKKKAIAEIEPKHCEikAII0KIPkbhlibhAVVCKACHKKEEEEEEWWPEIPLdEPhbld0=7",
"slVKFCCKKAVAKZHHKKKAVhbAKKIbCKEWVAIKVHhAAhACVbZkjVVCjilphmlll2&wJhAVmCVCKKlFmCCeKlKppVZVZCehmmppilkVAmFAAKKAZAIAKKHZlZdVmhlh5:%3",
"sAAKVhAVAVVVAVFAVKAKhlbAKFKbAPKLpKEKEVlIVhHZAZlVVljjehpkhhlKh:*9BACClkmbHAhAVAejKpdlhlVhlbihileephlhVVVAVAAAAAAKPKAbAkpVKhAi0:$7",
"glKAlVlAVlllAAKKLAAKViAlAAKPPIKKAIWAKZKKChKAAlmVlbbhhpibdlACi:%rgmllkVAmLAmpVKlFdpKZVAApZVpjdbeVVibhAbhLKKKKLKKEKKCKlAjChhAeq=@7",
"glVHVAFKVClFKKKVVAKLmhiVAIEIKELjWWIVHVKFlmVAlCKVbAAmeeFKpCHlp:%rnkKVlACVLAkAWVidpVEhAVllVhkhlVlklVVVAVlPIAKKKAKIKKEPVhAhKllh0:$7",
"gAZAHFHLFAACFAlVKAVA2eVVVKIKEEIKAKKpAVIAhAlAFIHAVAFkeVVFpApAh:%wMAAVlAFKPAhVKLmLlVIlVAlhVpZlVZVVlKlPKpHIKAKAAKEKEEIKApAACplki:%2",
"gLIKAPPAZkVlAkkVKmAiemAELIKKVKLKhKAVKVIVVVAKKEEIHPLihAAAAphCe:%6ZVVCAKKAHVpECKKVlCIehpplklVAlhVlmAbIKiEKAAAAVAAKIIAKkkACekbmi2#3",
"fKHLPAAbVbkmAklKAmAi0lVAVLKLPLAAIIAKIKKlKKLAKKVVAVAbIiVAAmKA52%4ClAEKKACVhAEIHHhClVpVVhVAVKVChViCVAmlAAlAlVAAVAKEIAAdeHljCKVh5%5",
"kZEKAAVjbZAFVkhCkkle0lmAZVLVkhPKIKFKVKKAKKHVIKVVKVAhhehLlVhCp:%9MVEKAKKEIHEEEKklV0pldCKlAmAkpVmmAVllVhiCViVAVVAKAAVmkVPkAbCVh:$4",
"xKIKALVhVCmHIAAKKAlllhVAVVVPAmPKKKKAlAAAKKKKIAVlZKIAZpmZjKhKp:%6DVKAAAKKVKPHlmlie2VeVAllAKAlVKpCjbpjhiIAkhlAVVVVAZbVmZKiVACZd<%4",
"cAPIPAdAVZAIIFKVKAlphKAAmAAZCAIALAAlAVlVAAKIKAmlVAIVhAVAIVVmi:@wBAPKFAAVAAVAlVhieipCICVVAhVlKViFkhpAKZmAllVVAkVVAVmZVVZkVmbVe=&8",
"cAIHHFAAZFIKFKAIAChiFKiKbdFhKmVKFllAVphVKVAKVAVmlPVhddpZEKVip=#0cAIKFKAAhZZAbddiplVVKVlVVkKpAAdiekLLVhAldpmVVVVAVVFAAVVVbdlki=$5",
"aLPAFALAZFFIKCKVAVllAAlmiVCbKKLZVVhVAjAAAVVkHVAVAAlAlmlKIIehi:$5cLPAACbVhAAVhZhmVleVVhkVKKAAldhVmmKbChFdplZVVAAVCAZAAAAlhhdbi:%4",
"aKAAALKAKAIKKjVmVCjlAljiACVhKAmChVVAAAAAVVkAAAVKFLKHVkpACVidi2%5gKICVjhhVlAVmKVKli0jlVVVAlAkZiAAiVVKlbClhVAVkVlAAFCAZAddiikHh-$4",
"hIIKKAIAZAKZVbAVVjlVehhKVKKVAImlbAVKKIAAAKAAAKKKIPKVA5pZVe0kp:%wMHAAllbkAmAKAFjljiplACVAAbVlilAhhKKKKVAAbVVCZAPLKAVAbVkAVpAVi:@5",
"pIKAAKKKFIAmAAVVAAVkpllKKAVmCFiAjdKKKPAAVAKAAAIEAAKKeiIVAhAA5=$6cAAVZkVKAVZVVlhmhplAlAKKAAZCdbldhVEAVAAVACAAAPPACKKKAVVhhlVVi:+5",
"cHEAAKAAKAHPALKKAlClAKWEmAlVVVVVmAIKKKVVlllVKAEKLPVliVLdPVK55:%4ckbZAVkAmKZVbhbbhdhlmKKAlAZZpillAVEKpCAIKZLPKHVVAAKVVAKhlAlke:@0",
"vHKKAVVlmVAZKPLPKAKKAKKPlAVmKIIAIZWIKVpllAVAIKKKChAPhAAmKhl0i2%1jlZKAhllKZKlVlbmbhllACAVjAZkpVmilVAVVEKIIZHIKKmAVAACVAKAlVlpi:@8",
"cAVZVlpAKmACPKKLILKIIKKKipipVKphZKLEkAhFAKKVVKKKKLKPhKAAAVh0p2$4adhVhdkVVZlVjVljllVVVAKVlVkllhehKVAKKAIIKZLEVAAAVVVAAAKhhdVd02#5",
"glhdhllACZFAPAbKKVAEELKAiVlKACmmbVIAidmHVKKAVVAIAFLLZAAZkp0ip%#8g0VhlVhhpdmAbkZbVVAVAKAmhmZhi2elVlVKKIIFbCKmlbbAAmVAKAAhmhV8e=@6",
"gpekddbVVFlAALAKFAFIVAVlehAAACAKVLEVpmKPIIVAVVKVAhKAPVild0eh5=#9aiKCAlppbkAVVhbdjlVVKAAVbmkhb2bVAKAEIKKVlAKVAAbVAVAAVAmhVh0ii:%9",
"gblVjjmlVZmVAKVVVKIKIAApmAmlhFAIIILLVZQEKKAAAVAKVZKZFiAkd0ke0=@8gjIAhkhpblVVhippkllVAAVkbhihi0ZVVAKIAbphVKKFVVVHAVAAKAVpV5ppp%%7",
"cplAAVHKVljkbAVVHPKAmlCChlCAKAKILKFAlLLKPZKAAVmZZbhVbedpeipie=$6aVKZhhhlAlVlbjlVVkAAAVbkhphVpeZVAAVIAAVVKAHAVZACAmAVCbZippVle%%5",
"glIbbhhipAjlVCCAIVVAhbmppAllVAKlLLFAALHEPAKVVVmVlimVl2llpdei0=@3ghdlheVllClmklVlVKAAVhphlbhVppAhAAVAIkiAVAVVCAbCVVVVVFVplVhh0=%3",
"almlhklhAAlpllCHZVbVmlhhpplAKAiAKFiiVhVAlmllZVlmmdAl0ddpeipe0=@<gimVlhVkhlllbbllAVkhVllhbphphhdkVllAAlhlkhkVllVmbllVVVlldphe0%$4",
"adkmeblhlhpiVVVChlpbbkblhmAVVlpVejhidbmhphdkkVldmdl0i5i0ephe2$o3giFhpllpjhhhlkkkVkplhbVdhpppeedhippkhhiiplhdephppllhhlhpi5505=@6",
"ghhp0i5ei0e0ipppieeiieeieeeeie55eh05ee05eeieieeeeee002505e52#%o1f0p0ii0eeeeiieii000ieiee00005e005e0e0e05iee00eeeieeeeie005202%@1",
"gh2==$==%#%%%======:==&==%====o%=%%#=%=%:%=%%$===%===%@$##+o oo3ae2=%==%&%%%=%%%%=%=&=%&%%%$$%$%%%%%%=oo%=%###%=====&%$#o@@#$@@8",
"g5#+ooooooOoo@@@+@@o@oo@Xo@++o .oo .oOOo+ooXooo+oo@oXo+ooo ooX#3w2@ooooOooooooooooooX++@oooooXXoo+oooooooooooooooo@@ooooooo +o@3",
"Mawww908731,<<<23,35911,:22:2:::;34<4<612<4511111662<222<4<2<<3tar8647644214416<22222<775<<4<;;=;33<552232<4336<74244<1336<1414a",
"TTTUGHDMDMcggfscdhgBMMSgfggagiraMMgvvgcnMMcfkfxglknvggggcknnnggncMSDMMcvncagskjZggjafggcNfascu9wxMgcvcgBmjcvgnkvnncnVbDcBxkzzfzR",
"AECEWCAljkLPIEIEIIEELIKhVZdjj78wxhVipVVAVblAZZhKKAIKZdklAkZkebmmKjkmAKWChZilAAVACCHKIIVFAPllVe29aAhLALAFEIPIPVAFLKLAKVVpliAFiLCF",
"IKIW!KebeKEPLKKPWWQEIIKLIIPPi5=4slleCKLIKLZVkZPEEEAILKLhlhkpibALEVZIWHEPklIEILAAKAKKHKPIKPKCk5%7gIAEIIEWQAIKAAAKKKLRKIVAhpEHlKaP",
"IEWIH5pmkKFlVVAAIIEKAmVFKAPC2%@6zeeidKKZVhllpAKKAAVAAmbmmZCZhhKAZmVAAhEVmlPAZZlVKHblHHFVCAlhe=@9glKElCKEmAKAldVCmFAPVVlldZZLAVjb",
"ZAAAmdAPibpVVCVbAAKKAAKKFVbl==%6shlpbVKVVAlplCKlVVAAAVAVZld00llVVdehhVACphCAVVAVVZHCZHClhkii2=#9MAPPelPHhAAVdlmjVFlClZVCAAlAhhlV",
"FLKVilAbpbLKAAVlAAlAIFKKhhVi5=@8cVAlFFPbmVklAKKVhlAAKVAhCeipmlVKkhlAVKlVeZKVVhVhkmmZAbVdhhip:%#9nAEKVZCVIKVdVFVAbVbbpjAmpVVbpVVV",
"AVlbmbAbVlIVAKAVmAKEIIKhlKVe0%@4gKKAKCkKAlZLAPPAVAKAAAhVliVeAbIAibAAAVeKpZAllhhAVLAKAlblkkep2%%7nLEpAZAVHlmVKKVbCldllVVChVhmihbV",
"CAlAlLApVZlVKAAAAFAIKKFZAFV0e=@5aCIVhPEFKVCLIPFFAKLVAAhAk0pmVhhhilAAVlkAAKAmllVKPIHCKVACkepi2#$9vVLhlAbVIVIEEIEACmmZAKKmhKllhAKK",
"VKkVlbAAAVlAAAlVVAIZKKVVimb50=o4bpVkhAAAPKAILPAAVKAlAlhAheAAmAdhKAVAAPLLAlAkhVKAELAKAVVVVihp5$#6jVKCAAjFALEIKIEKIVpVhhKiAKHACAVm",
"AVAKIAIAjVALAACmIZALAmlmpPhp0%@3hAVldKKKLmbVAKVmVAVKAlhpbhpjilebVIVAKVVlllVhVlAAVZVAVhVAAll05:%7cKKVdVAAAEPlZLZKKpmKhAEiPIALdhAV",
"KEIKljFbllALZVVZZVAVAAKdhVlp2o@4jlihVKKAVhAFlVdjlhAKVpplhdidAmliVmlKVmpbpdAllAkZAVVVKVVAmbVke@$9nlhllCPAAlmbAVbIAimViKlAAlPVpVHA",
"mAKhVKAAmlKAVVlAAAKAVAbplbhe2%#3ukiAhlehAALbhVhlhVVlh0pdllelhAdphHKVlpidAbKVHAhlKlVVLAKbVAhe0%$0cPlKHmFjbHVAIAAVlpKeIKVhVEAepZIE",
"pVmphlVVZZKPAVAKPCZAVHVklbb5=@@3ujpZhhVAZVChklhmkAlkliiVllphVVeihKdZVVhpLKAbAbVVKPVKKAZAPAhi2=$8xWKKAAVVFKVKLZlVlVAiIFFmIIipdLjZ",
"VVppAmmAAKIEEIKIPZbVKVhlAblde&@4zVHVAmVVVVZhVmAVlVhlphlljmVWHZChHPLHVklpKmbCmbAIIAKKIEEEIPZpi:%7nWWKkAAVVVFZVdhAAKmlKEhAIIhlhZhA",
"VVVVACbIAVIEIKKLlKbklpbVVVli=@@3sbhKKjbVjAmbKVmZVVlhpdlVAAKKAIFebVippdppVhhlbVALCLKPIEEWIAle0:$3fWKAAIKHVAAlmlZZhAphKAiZELjlAAEI",
"EAVAKKAKFKZELVbllmhhbhVAlhdi0%$3alAlVhApKFhVKCmZmlkdVlhAEKKIHV0emIVmbVlpbZmhVVVHZHKIPEEIZKZed:@4sEWEPPEPKIACbpKlpppVldbmEidbIImA",
"hVAAAKAVCPFAZlhlmAlhhmCmllppe@$9nrpibmphAkldmbhhddpVhVKKLAHAZjphVlijAKphKAVAAkVFmEWEIIIKIAihi$@4pKQKAIIKPKAmlihVIKVKKKVVAKhVAVpV",
"VAAKAklIPPLCmdZLLlllhAKmhlbl0@+6gZeVVZlVKlAmAjbbllCVVKVKHAApkhAVVmlllVhVIAVKKVKKIEEEELEIAZhm0:&4pW!KCKIWKAhphhVAppKKhVCKKVVVVKdV",
"AVKVhlAKAVVAhbAIChVCKKKAAVhi0%@3akibVKLhZljhZmVLAlAkVAAKKVVdKlhmlVhVZAEEIVVkVVEKIEEELLEIKVjh5=$5aEEAlAKVFCblAPLlhAIkhAKCKVAllAVV",
"VIKlpVVAFVPKhmZhVhlKIKAVVVpde=$5cAVVLAbmVhmZZVZVmhClAKAAVdlVkllpbllVkAIVVVlpVAEKEEIEEILPKllp0;$2gAAVilAmVZCCEAhAKEECldplIVVApVIl",
"AFVjkVllbVVVhhdhAClLkKAVhjpi8%$wlmhmAALHlhdVVAhClVAlAVAKAhVAVbhilhVmhCllVLkpIKEWWILIIIPKAhl02%$4ymZmjlCIEKKmPAlAhVKKVpILElAlpAAV",
"lAlllkkVbmVmVkdZAAKlAKkkkkhe2=#1gbAZAVPVbpAIAmjVAAVllVAKbAVVhpipllVpllVAAjpAKAIEIIHPLLKilAVe0%$4alZlVbAIAZAHVVAZVAAKkVCpAelhhEVA",
"VjhppVAVVmVVbiVhAlCKVAVVVlh5e=O6fCIHHAFAbbVKKhlkVllVkAVAAmVllhhHIVhhhllhhLlKKIIFKAlVPhmeKhi5e=%5aAAVALKZmmKLlKPkAAAAkVlpKhmpKVeK",
"eeklAKFlVVAbhhhlVAVAAbVAAdhee=$7sLAHlVAhVFmVhhhlkhVVVVAAVZAhbhAVddhChVmAEEKKKKAKAkmVEpkpldlp0=$2fAFAlAVAbZHVVAKblkAVlELpAhiKZhAV",
"lAKIEAllVAAhlllhhAAAAlVAkihh0$+9aVAllmmAPVpKAVdhpmhllCCkAVbhCbppiebbkkVZAEKVIlVAdhAHLdHAVAZi0=%3kdbblVKKCmAAHVVdjCKPAAVKpipKHKll",
"VlFAAlhhlCAAAmphlVAVVZlmhpbi2:#2aVbVlVkAlVbAdkdihplhklliCjlble5hekmdVZlAAKlVlAVlCVAElpbbdhph5=%3gsZmVVZVVhVlCVVlljAAAppK0ilAKAlV",
"lAlVkdkplCVVlVmmjVhkdlhhhip02=#7jpppbhhAbVbbkhhlpphhjklpmlhbi0delbmhheiZVVVllAVAjlCHldhhhbih2=#8ahKVbjhVClVClllkkhAlAhiVelVVhpll",
"lphphiiphlVlVlhlhpphllddpep0w&@9nhVhhjklpbpphhhhpihhkklhhehl00ipphphehpmhVlllVphiljlpp0ee0ep5%o<aAAjpmAZlCACCklhhlhkip0iiVAhlVlh",
"ee5050eeiiiipeiiiiiiiet00ee00=%rBkhe0ippppeii50eeeieeie0eeie0ee0ieee0edlie0peieeeiiii22020ee0%@<sCkheppiipiipepeeieee25ieppieii0",
"%%+$$%%===%==&=======$&%%%&=%o+9Me=@%%&$=$=&$$@%%%%%=%===%%%$#=&=%=:=$==&%=======-=:%##oo&==% @1ib0:%:==%====%======%@=======%=%",
"o.oX+ooO+ooo+o@ooooooooooooooo@9a:@o@oo@oooXooooo+oOooO@ooo@oooo+.o+oo@oooo+++o+++O@+  .@o+ooo$3rq&+o@oooO@@@@o@ooo@o+ooXo+@oo@.",
":2255,32337354790e54272127798qrkMarr934,23790874050076<>4531<<;*:<<:<33;1<<222:21<42<<<37<24437ray9774<216664244<,,76313424225:=",
"gcgvMMggBcxZDSHVMDDGMSMgcDSFSGPIRRYYYxkgzNBnvZHVGJJJGDgdgMgaggaygggafggcDfjzcNvgkmskfzccnggMvnjnzNBNMkNcbkkMgMMkxfznMMgsnnncgfiy",
"gPEAAAPIKAZVAAAAAVAVVALAhkVWPPkAmmEAZmHHZFVlljbhZKKKKAPKACe0i0qrgmHjFLHVHZKIIEIFIIHPpAHAiChVlPWIW~EKZRIIIHEEEKKKKFLkEIpVVAVVjp0r",
"gKIKIIKEEEELLAAAVAVHLLIKAhKILPppkPikAPWEPVhZChKAKKKZAVPVChpid5=8fhAKEAKACLLILKKILEEWKEHiVAVFEE~E~QEKIIWIWEWQPIKLKIIPIKVFVAELAe=8",
"clLLlAZKKKKVmAVVVbhbZAHbAhAAAVplhpikVkhlilpClAVVmZllkCVkhei0i:%7gAZCZkZblAIPKAhVKKIKPACAVlAPIPWEQPPKCHKKAKKAmZmCAAKAVAVKmVAAi;%6",
"nAPKkVACAZAlVAllhkhVAAhkhVCCAAkej0hipdbVpldAlCkpVhlmbVVVbdedp:%4flAAAlhVClVblVkhALKAKVVpihPEHLPVLVbplCKKHAAHllllVmhhVAVmhmV2e:$9",
"fCLblpCKKAAClVlhdmVlmphlhkClVVpheihhhdhdhkKmjlllVAZVZhVbpeidi2%4jbKPklhIAhVkhAVlVIVVKAVVAAIHAIAKKVbClHAHKAVAVljdlkVVVACdlVlei=%4",
"klVmVVAKKAZChlplpAAbdlVlpbAhVldp2hihpihVlhCbhkphmAmVAdVlilpe0=#3xZKClPVKAVCACAAVVKCVAKAKAALCFPiVVlVlZVAFKVlAAVVdlhCCZKACZddih=%6",
"alAkVAHCAAkVjjllAHHVAKVeCAmphVl0bebChmpdVkhhhpkVAAAVVVmkdehde=%3shKIAPCHVmCKAAACVAVVAIAKLCilAV0CAVZpVFmHKVVlApjlmkCACZAdipdhd:#3",
"adCpVlVllVlVVllVKKPIKLmbAAVhll5pleklle5blkIKVhVVVVmZVlVhphCpe:%8djIKmllmCllVAbVKlAIKEAVVViihAjemEKLmVAVAAAAbhlkVVVKApdheiplkp=@4",
"fdppkhlVVAAllVCFAFHAVZVhppd5lihl0khpeiplKKjVAAlVVmVhhlVhCpkpe:$4hVIKhhbpmmhZKAAKVKKEEAAAllVAAmbIVAVbVKAlAAlhhVCCAKAVpVjFpkpk0=$4",
"ahChVVACVlVVlVVKKAALZZAipjVdlhleeejpphlhVAAKVVAAVVbhklklllpli=$6cVAAkAjmVKHCLPPKKIAKKVKVlhdlCbIIVLACmAKlAVhlVVkAFAHlhebphhphe:$3",
"amkbkAZllhlAAjlAAAZAVmmblhhplAhhkZkpmhbVAlKAKVKKVAVmbbmClVVhi=%9cmllAAlKiFAHKKLLEKKKIKAKAIpVVCIVZIZlVlCAVVikVVCKPAVkVVmplipe5:@4",
"fmVAZVAChVlAAhkpVAAlAVbbippilVlVlVihhplLVAAACjkVmbbZmlAZVklli=#9MVVkml2ViKLKKKLFKKEEWIIKlKhibAZhAChmVZKAlhdVkKAAVAlpkZj20eeie:@4",
"gjLKChmmVllVVlkhAAlVVFlm05ilAVpphpdhhiVKilVhlhVVAAmAVAAAAVkhi:#9gVljihildZEAFZKHKKEEAAAVlheeAZCAdllVKZmlihmAVAVklbhVHhp:ikiii:@7",
"dkVAVhllllAlkkAVVllCKbd02pVlVlVlbVVVehbACKKVllKFAKAmbCVZVAAdp:$7kVEhdVilbKIKmZLIEKWIAIEVVKIkZbVmhAZmbjllVhVAKAAkVVVbVip2iAihp:@9",
"zkAbmbhCAFVklAAVVlAAldiekVVlVhlVlbhp2pVVAVAlVAhhmmVhbZACVlhVp:%7vpHVhVlLlAIAHZIIIIKIIKIFAAkpmmdpidAiZbjCAVKEIAAVAAmAhe0ijCpki=#2",
"ahVklVlAAKkmZAVZlVHAhVVhmlbmVdVVVkehhkVpAkljhjpAVlClbAAVklVVp:#9xiEClViV0mILIALLIWIIAIEALKpmhmhhhVCkhVhVKbAAAKKKEKZlpkAhVAhli:@5",
"fACkmAbmFVjHmCVLKKLVpZClVlllpiCVkhpmVVhiKllphiVVbVldhVVhlCVVp=#7fdEKprphhKILACKIEIKKCmFIAheikAVdlVpVlVlAIAVVVVbKAhVhAAFhlhplp:@2",
"aCKAVVbVkKVKAbAIlbmbeppihAipljkVmkebbVehVbihpVhVZVbmbAAVmVAVi=%9fklVeliAFZKKVKKEIKmAACKIViplVikkKlVhAkVmVjAjlZmmCkAAFpi0pejVi=@4",
"vCAjlAllVPAAVVAlKHAdhCiiAA0plVKVi0plk00VAkipjCCVmbVACAAKVVlVi:#3gVAmheVPmmKbVIKIFlAlVAKKVVVKhACVAhVVIKVlmmKmVVLHdkAVkhVVpiAhe=@8",
"cmImbmhlAlVmmAdVKAmhldhbAi0kVlAlVFZmpjjKllAlAKVCVFZAAVZKAlkki:$2deAd0hFACKEHLPKFAAVHAKlAAVZbipiLlVVVEEVVbAFVLVAVbmblljlbididi:@0",
"fHPlZbVbmphVCAmAVAZbmmkdVplVV0liZbAmVbVVAAAlKAAKKKKmVVlZKkVhe2%0adlbiALVAPKVAIFCVKAAKAAIAVhbAlVPAVlAKKAklAhKVlmlAmmFVKVdmCeZe=@3",
"gAHVlblhhhlAVACVFHbhAkLAhllkphAhAAZZCCkAIKKlAVKEKZCVmlllkkkhi2@5a0VlVAbhAPZZLPFVKVkVVAKIAAVKhlVKEElKAElhmVhACVkVlZAZbKKlkh0l5%$4",
"gmCkdAVlphdKVAACKAmAkVAVpAmkVjlVIZbmAVAAAFVVKKKAVhhVVVhmlVlh0=o0vkKAVibmmCAbKAAKAplAKKIAAKAAljlVKVeKAKllVAAAFlHVKAZZAAAKVkii5=%4",
"fbCVlClljkACVFlVlmVVpmiVplppelmVPpAAbjdpVVlKAKAAVkVAVVVVlkp0e*#7MmPmhlZZHLVAAHIKAkAKLVPKAAAlbPLhKiljVIlCibVAAVILPAKAAVVml00ee=%4",
"ahHZllkkppjVlhlVlVhbddlZpplphPCKbpAmlibhAhVKAVVlAlmKZVhbhpie2$@wMAZpAIIILVVHFIPAlhVAAAAPAKACFZlVVViiAVldeVVVAZHHKZKKFmihd5iie=%5",
"abKVhdhhpkkkdVlhplhhdllbephkAKhVbVkbVdAjVlllVlhlCVlACVbhhme00-@7clKlKAkAVhlAKAAppdlAlllZVHAbApphAVphVAlVbbHAllVhbAVVVdimieee0*%4",
"idhlhiddphpphphphhppidhepidbbVdppipeihkkilhlllihbbbVbbkmbmi00=$1cVVidiVZhphVkdiiplkkpllVVjkdd0lVVejllelVjdbkplbdkbdhdh5e05ei5:%4",
"udkdeee00eri0eeieee50w2500e2iee5eieepeii5iiiieeepipiiiiiii:05&#<idhiipeee5eiq00e0eeiiidppe00e2e550e:p5eeeepepieeeepe00::=5,02=@3",
"up2;=%%%%%=%=%%=%&%%$%%==$=@=%%#%%%====%%==%=%%===========o$#@@5ae<=$&&%$$=====*===%======%==#%=@%%%:@%%==&===%$====#=%oo##$@@+<",
"q4$+ooooo+oo+Xooooooo@oooooooooooooo@oo++@o+++@++o@@@o+o++oo+@%qy2$@@@@+@+o@+ooOoo+@+o@oo+ooo oooooO+X.+@o@+@@o@+oXooXo  Xoo+o#3",
"fw33<165446225521646126153424<;*;<<2111,<<5455009w7773377088894rur742<<,<224323<25242,345<<:,<<;3762500048333<783<<2,>34<2<<154a",
"JcnkxgvNkbjfvxzzBccvkfzxgzucgarrsfsgxggjcggvMGPUJJBMcBNUKLGGJYYvxnczBggkcggcknppvcMMcfgMDMaagfyrcJDgcDMvHVggggfgkgSkcsvksxaffcvv",
"AVAbZFFKEKEPIILAAVKAZZVeHdVZVCr9fEZhPRIAAAALAAKIPLZAKKKIIIlhCAEKChkKIVHKAjCPPAIKIPPWPAKVAihk005ycWWEKlCPKACHmFPLAnlAlZietVFFKKVA",
"HVkLEKLWEEEEEEEPKAEWIbeVVlZIhi=7sKPIIEILAKWWEPWEEEIAEIQKKKKAAKEKpAKPAmAZVVAKIAIEIEEWIVEFKehl5e=7NEPEFAAHKIVAKEEIHmbAbplbHmAIkPAA",
"AmmVAKKVIVAAIFAFZZPCKhdjlAAKp:%6gPWVPELIKKKAVKKPPAAVKKKlKVVleVChhlhhlkAhhVAAACVAAPIPKkihle2pe=%3aKAAkChkKVklAAFmjdlVhphpihhlKKVH",
"ChhhlVHZAAVVKkAVAmFbb5diCVAhi2=8kIEKKAbVCCAbVVAAACAVlVHAVhhk0AAVChKAlCdplhAVCVCVPILKZZAVieihi=%8fHhlihdhhAkVAVAkllmbCle5pblZHCih",
"KlApVVHZVkAAKVVmAhhki5ijPEPVd2%4gPPIAVlKHLVFAVLKAACVClPAZhV0elVAKCPAlKihVCCAAKKAPAAACCVihhiii=$7clppZkhhAklVAKVACVdhml:eVVAVHVpA",
"KZlhCClVVKAKKKAVApipiiVPKAhdh2%7gAILVlAFAVCKKALLHZVVCKIKVpdiilKVIZPAhCibmAKKKKIKPAKAlmVld05ee:@9jHiVVhpChVAmKAVVVVpAVl=dVhApACkK",
"llh5AAAKAKKEKAVhki2kVVAIEKAKl2%7LZIImKFLVAKHVZLAVACCKKPIApplpkAIICAldmKmZAAPEKKKLKFhpAHeieelp=@7gKAIphVbVApAAAldkkhHCp2ilVhiVdVK",
"edplKAPAKVLPAClAjeiklbVAlhhme:%7DbLKALPVKIAKKVVbhVlFAHIEZVlbhEVVKmVbhKkVAAAEIKLEKAmbZKmie5ipi:$4gAAApbLbVApVCppkkVAAl00hZlhlZjAl",
"llVlVAHACACKkblli0peklAbeCmbp2%4MpIAKIPIKAAKAmhVmmZKHVKLFlbVVAkKAAhimVAKVAIKVAAKVmVhmmeep0kie=@4aVlAmVKeKlplhillVVVAl5dhkilVHVVd",
"KVhAAIILLVkZhAlepdjpbVmhZFVHd:$4gbPLAPPPKVbKbVFAVHAIKKKAmKAd0VVIkkeCVAAbAAKkVkClbjmVmheikiki5:@4gllmmlblAkbkmbllVAAAiemipiVKZVAF",
"ZmhdAPKIPAmAAAdlepihVVblhkCVi:@7aVbZLAAKllVVKZKZAALLHWKHhh0hhKAmijkCLAAlACklAAVAVALVbiliAmd50:@8MpAAVAlVAhbdlVAlVAAk0hihjhbAZdVb",
"AVhdPIELZVKKKAAlpHHkKmVAVHIhi=%4gbVAVVKVblAILVKZAlKEIAmpbVAAjVplVKKFAAAZKAVAKKKIKKAVVhhddeee0:X4gCAAmjhlVlhlbKmAVmlphdCeldlhbZlV",
"lAlkWQKAAFLKAKblhZddAAlAbVHhe=#7alVVAVljAbKAZAIZIAEPVhdZLVKdbKIKIKmVAVKAVKIIIAKKAKVVhiiddih00;o1gAVdlVjkVCVmmAVAKAlkhVpihlmVmlhA",
"ALKPWKKAIKIVVlblAAVZVhpPFCKep2$8jlAKAVlAAAAbKLHAKLWIEAAAZmpbIKAVPpmlCAKAVKKAVhlAAllmljblleiee=o7vVhlAAblmZAhbmCKAVAVVKplVVVbAbVZ",
"KkLAKHhALKZilbZmZmZbppbIAbApi=@7kkhAAVVAmAVAPCVZAIIEheiVIVFZVAIKhiZVAlpFAKAVhllVVlmmldlihkkdi:o7cClHFZVVmZVhllAbAVhVilVKAVmAKKAK",
"lVZAEdKKKAZdVAFmZVblkVhIKKVh0%@0fVFKZCChVAkIPKPKWKEWhAKEKAKbCZZlClKmVAKIIAlVAhAKlmVhbbh5de0dh$@5dKKAkVAVklVljCZjVlhkpAdphhVAIAKA",
"lVEEKhIKKIFbZAZZKKblepVAVVkh:=$5zCKFAAAlCAKPAKIIKAKhAKhAAAmblKHPAhALAKAAViplAVAAhbkke2ipVddme$%9ljAklAAVVVmlVAZmlAAVhFVlAAAKIIAl",
"AAAIKAAAKILZAACFFFClhkAlKhKp5:$5jVPLALKCAKKPIIIPVKKEIliACZVmlbILmlKKAAAlhpmVAVAKVlkpemKii0hlt:%9vlAlkAVVVVAKKAVCVlVVAVpVAIKAVVVd",
"IKIKKAKAKAKZKKAFKVdeielkIKVp0:%2MKEKhAAAKIIWLLLPAVCKAplkhAmZhCIHZlVVpjAmlVAAAAKKKZVAhPAe0lVm0:%8cAVlVAVAKVKFVFKmAAAAVKKAAhKVKApZ",
"IIAAAAAVKKIAKAHKAKVhlpKVCKieh:%9cILVAZbAPLEEKALlpEIhphpbhmbplAIApVVphVAAkVAAKAAAAVlbpbhlemlhi2%8gAAAlVVAAAFKKLAZVVKCKKpihVVAKiAE",
"EVAKKAmAKKAIAZAKKIKA0AKKllhkh:%3vKHVhZHPLHEEAChiKKVhiepllhiAEAPbdbmlVAAVKKVAAKAAmAVVlLhAdVVAp2%5kFKZVVhVAVAKKZAlkVAlChiKppVIhKEE",
"AVAAAlVKKIIIAAHVKAie5AAKhCVlp=#1gCAVVHEEIAEIAAVLIAVh:ll0iilbAAKbdjlhhAVAAVAVVAAKKVlKLlVVhhjlp:%0clCAp0hFVAKKmbVkVCAphAFVpllVVKKl",
"VlhVVAFCAFFVVVAVlpVVkKKEVKCCi=%1gFIIVVEPKAIPAAlAVAAkiIjellmAKLAhdhmdllVAlhVlVAVAVkAAebhhjelle:%5MCKpiiVVVlAlmmVChAhCAAllleVAAAhA",
"ihpVVVVAFAVKKZAlVAplVKKhimVVe$@9glEPZKKKVbAAAihVVphiVV0ihkVlLbhibmlhVACZhlAVVAVVlAldbVhlhepli:%7nCCpkiVKKHAVVVmVVblbKFhllpVAlliV",
"VdhVVVVAAFVAACbbbViVKAVhVkie5#%wMCIAZmlAhVCVlhVlkpVVhieljkVAAhAkjlhlmVHChVAVVAAVmlhjheVdp5hle&%7gmAlljAAAZVmmZVAVbVVlihHm5hlhhhi",
"kkhkllVVAAVlVVlhVVVCbiVjhlbh0%#4NFKLAAkAVlVVhlVlhhAhpi5VjjVmbmVhillVjlllhVVVhVVldljphldheeipe=$4gAVkdVZClbmkhhbmlklVhpAde5Ai0klp",
"dehehhlCVlmhhlhllhVhpihppe0i0=%qCKVAAClZVbVllpbhihpip5eieplkeeeeehhhdhhlkhhlhhppplepihi00ihee=$9ghkhpkldhkbkhhhdkpblbib2eep0ilhi",
"eee0eiipiieeiiiiiei005d00e0e0%$qNnjdhppieepeie0ei0e005050ee052e0peei0eipi00e05005205:5:05ee58=#4aipeeie0eee00eeie0ipe0e0eiee5i25",
"==#%=======&%=====%=##$&%&&=%%@9ke5:====%==%$#=%%$$$%@o=%=%#%@&%%==%%======%%%=@@##@%%%%====%@@7ae2==%%=&%=%%%%==%=%%=#$%@%=$%%=",
"o+ooo@o+oo@oo@ooooXo o oXoo+oo#9a2=@@+oooo+ooooooooXooooooo@oo+ooo@o@o@o@o+ooXooooo ooo@O@oooO@3i2$o+oooooooooo+o+@ooooooX@  o++",
"-:<<:2:5344134239990q99672,7qqrgva9ww79993<23<74707q95006<11323,176077<<,45322:21,3631411,<2<17yfr9743<<<:<<437433,23,,<<<:22:=="
};
