/* XPM */
static char *result[] = {
/* columns rows colors chars-per-pixel */
"128 128 46 1 ",
"  c #030303",
". c #080807",
"X c #0A0A09",
"o c #10100E",
"O c #141413",
"+ c #191917",
"@ c #1D1D1B",
"# c #21211E",
"$ c #252522",
"% c #2A2A26",
"& c #2D2D2A",
"* c #32322D",
"= c #38382F",
"- c #353532",
"; c #3A3A35",
": c #3D3D39",
"> c #404037",
", c #43433D",
"< c #48483E",
"1 c #464641",
"2 c #4B4B44",
"3 c #4E4E48",
"4 c #515146",
"5 c #54544B",
"6 c #59594E",
"7 c #575750",
"8 c #5C5C52",
"9 c #5E5E58",
"0 c #626255",
"q c #656559",
"w c #6B6B5D",
"e c #70705F",
"r c #6E6E60",
"t c #737364",
"y c #787867",
"u c #767668",
"i c #7B7B6A",
"p c #7F7F70",
"a c #80806E",
"s c #838372",
"d c #898976",
"f c #8D8D7A",
"g c #91917D",
"h c #949481",
"j c #999984",
"k c #9D9D88",
/* pixels */
"@#$&&#@&#*=;**==;<>,**<=<=*<>;>;:2*=%>;**=;<>,*,>><<>><>>=<>;<=,6>=%:*=<<><<<><=#><===,<,,<=<<6<4<><<<<<,*;;<,*=&#=*&%=&&%$$+ +O",
"$&#%&@&&=,2,;2,><<2<2><45,<<<<,44,;;=,:,,>,<<<5<0<<606<>,<4=,<5,<,,>;<<<6<6<<6<<,6<,<4<<6<5<5<<<606<<<0<64<65<<<=*=;**;:*#%%&+ o",
"+&#&--*-;,24456,<56<04466<64<<6<4635<:;<<4<,<655686<e<e66455<>>,222,:,,2540q6088052265<5<6<64000068<80060,68664<,&;=;-,2*&%%@   ",
"OO@:---,,2285<<46666606qq<454<66848:8,=4244605e56ww0ee0e6665655,,4<4;<4260qq<8080065<26,,<80w6008q0eee<000<86wq442&=;4,:<&&$X  .",
"$#O&::25338068twtq0q0qt6qq5w6qqeq8q21322<58qqewyeeeqweeawt0086qw8<,40669qeeaaewetrw28800468q0ewyttwewee08tqwuwq60;,,,812:;&    .",
"@$$%19312rqrtpisisisaisasqwiaeassuur877uaeyiaysdfdsffafdgdaiisfggiuuuirrwsasdfdgkdaiuitiiwrtisffjfaidgseuiyqppwr8rqurq758:      ",
"@$+*-33-15r8qu0qqettwiiiiiyetitiutr55560ur8iaywseasafaedasaiyaiasiirtrur8eeeeedasdsr0ywuyw00rystiiee8q0<69urq677805q92182*     .",
"$@*&-1:1:247q8885w0y0wywqtq6qw0000q153248wqqwteyyyeaeeeettttwytttwttr863<80eewaadiwwyq0q0662840qy85<<<6wq028827q81:12512:$      ",
"@$&&-:31:3338080080rtqurwqr20800w00453,3800wweqyeaaitqitteitqattewwtrr85<0qweyyyisitqutqr0582200qw66466r8qw470r822212223-$      ",
"@$&&-11-::3966qr80r8440wq06q40twt0w0r234560tw0qywweeiiatqetytyywyttyrq8358w00e0yywiuqr0wuq676266058q26wwr86w087542123323,@      ",
"O@$&-31&-31326q68wwq848qwt000q00www0888858qieytyeqyaayqyewatiyaiwiqtr96460qewtwyi08uttwq0rw02695,808680q00868938211:111,2$      ",
"O#$$&311121333208800908tte004qt50wttu0qq260qww0yettiuwyaeitawtqtqtuq0028606iyqqq0tqrww0yq0wr580rqq88q58q9q6555:522,,12374&     .",
"@@%&&17:33111111625676qutw08qq00wwwqqyy65wq60ytiy00wywqitttitwtie0yw0r574qr0qy00ww88005eqr888r888q400q388876388435152126,&      ",
"O$$&-13:1331-3:72745858wwweq0600qqwttut65060twtyiy0eqrwtieiiiyittwqyit00qq8q06808rt800yqrqw000rqqww86r080046,688255:,2684%      ",
"O$&&$11:,-3:11:1:158055tytq000ewrqruwiiq000wwiwtwetwt0twqyaaaayei0eiwqw868020,6rwy80qwtweiywwt8w06880r000386q0w47q7:225,,&      ",
"@#$@-221-13113:,,,132668wy0q806qiqtqquwyq005wtwwtewety080eytetyetwt0w088880480w0qq088qw0ywttwutw08660888858rwqq8qq12222,,@      ",
"X@@$;32-;:71,3313:,8458665w8w80t0wqq0wqyr868qyweyqyyyw00yyewetiywyrt88w680542q0r8rw080qyeirrryyq608r0862688tqt088q772,:2,$ .    ",
"@$$&-:,:1:12132:11,328878ru8qwq0qqrtriiwt80rt0wyii0yy006yyewaweew000tqq0q8668866827088wwqwtyiwtyr8600ww6486trw89382,11242&     .",
"O$+$-,23312,,1,222826,05wtqqwqqrwqyyrywt5680wiweyiytteyyywiieeaeyyywuq6rw08w8848538880wyee0wqtyyir008q86386q0ww2,:3133,,1$     X",
"$@$-&13132,:1,-12,88884qywy8t000wrq8ywq46t00wttetiqeaiyyayyteyqttetqqwir5qwwq8415,70q0wt06wtyi0qiwq8q0w062qrrqw1::12;462,&     .",
"@$%%-2212,2:224346q6046wrrt8r80tw8wwtp80q80wqyyityyieiyyteewayytwew000iwwqq006242<58wr800twtyytytyw0qr00q00qqwq4,41512342$     .",
"+OO%-1:11462223826q88qwywrw00tww08wwt03866q0weysyatswieaatdiiiyt0iewiiiwiyq0w0q4228600wtiqwwwyew8ytiy0tw004wwtqw86,1,7282$      ",
"O@%$&1,,328480060w0684qrwq8qw0rrtwwt682008500wesywtyyaiiattyeatyeeiiwttiiqrqw0q4,66tw80utyqt0ywqttiwrqyqwqrqtwert8241,:<5$ ..  .",
"+#$&:11,36680660r0qq8rwy006608w880rq5888t05qytwiwye0wyiatyeiiyyiieeiaitwqw0qww06800qq00twweqwyy0qyt6rwwqtt0qqwwwtr5232:42$      ",
"+O#&&3312628rq0r8rqqwqq0826806q8w8tq486q000qrttiiyiyqyieaywweayqty0iitieett0qwe08q0tt08qqeet0wttytiq0yr008wqtwy0tw1q3315,% .    ",
"OO@$&:113268566800r0rqq526080qq60rq060w0r65trtyyy0yywtsyeiiiiywyeiyyetqawiqteqeq0w000606yq0tqtyitt0ttw0qrq0qwwrtuq8551511#      ",
"o@$$$333,62q4q80tqrq0817828qr80q80w8rt28w0qqwusitsw00uiaaeyaaaytweeyq0ee0wtte0t0ww0rw0wqywttweyweyy0qwqqqtywqqtiw628,251,+      ",
"@O&$&:1123638qrqrtw6-282184q48008rwurt8qq6wq0retytu0rtrtwtyywyeewewytiw0yyt0q060rrwqiqw8tyywqwqtiwytitqwq0wtyqqywq8982222&      ",
"O$@#&:1::,3-,8wqwr824787220q0qt0800it008q0qwy0yiu08wrqqreittqiiyywywwayqtyy6weqyyuyrwrqrwwyqw0tytytqqqe08qwwwtqwirw854511+      ",
"@+&---::;1,56878q0822804168060w00wqirr486wtwewy0508wrqrtyisiaiywiteeattiq0qwqqteiiww8qqtw0wyyyytqeirtww08ttwytwwrr8q71:1-O      ",
"O@@$#:-135,688232618448868608qqqw0tuyyw6q060qtqrt2240waetyiityityweyqyywit0wiyiewtyw6800qyweqyywiwiqqrtr0w06w00www88831:-@     .",
"O#$$&131552001;:22317880qr8rq0qqqtqrir0wqqwq68iiiq886qtitiwseyity0eqewiiyqewwewewquwwqtw60q0wyuyyttywwqwwwqtqytqwr80711:&$      ",
"#O$+&1713339732121275000r0wq0wwqwqw0wyq06wq6qtiwwyq206ytiewaiiiteqwwqqwiqwwy0wqqt00r80qr8wwyettityqtr0wwrtqrrqrrtrr627::&%    .X",
"+@$$#31337:9772-,:2158tru0wr00wyt0r0yw82qq5wtyyyse04tiatieaeiwisyriqwrqweqtawitqt0r60wrt88r0wwtew0iwwwqwq8tqritruqr8821-*+      ",
"O##&-17-:1177,1:,1,46q0uwrrr600688q0et556q00006weywettaaaetataw0qeqqww8wqqweyiywy0qq00wq0qwwqwway0turrttwqqrr0w880rw65::*@      ",
"OO@$&:33:1331322,4:250808qr06520qyqwit0w58qeywyiq0twytattityiiytitrq0006q0etyeeyyyq080r08rttyqeayqwyq0rtw0rr668t6i0062:-*+     .",
"+@#&&11:-:212,21;,42488wwquw008rq0yqetqiwq06wqwe0q0wwuaieateiywttw8q6660tweiiiyaety060qu06wwete0weqyqqqy0r0985288qrw9811,@      ",
"$&#&-33337311:,3:822442qiqrw80r600qwqtqeiew6t0wiyeeiiyyyyeetywqiayq80ee0qqt0wwytywr0qqeir00www0taeqayq8tuw008,6700508242:+      ",
"$#$&-11:21123331368006120rtu880q0twtiqeqiyy00wetiete0yiwetyttirt8w625qe4wqyytw0wrt800ww000q06yiwwwwwwrww008883153,1152:;;&      ",
"&&&&&1311327:39362489772822tqy8qw00qttetwtyewwtqqqyty0wyeiiitwyitq2260ytqit0iiwrwr0q060tq5wreyyyayqqwtw08rqqw242;-,111,2-@      ",
"&&@#-34:,;311780qqrq7681525wywqy60t0qqtywwywqwttiwaytiytrtqyryiwi6529qiwq0ryywryq0qqqw4wwtwtw0twyt0qt00w8680r811,1&::221;O      ",
"@&&&$15:5,:13508r0q37388486qi60qe0qe0ww0qqeeqteeyiyywttyytruiwy08886600wwwytt0ywwr8ww00qttrqiqwwtyqtiwq086q6r82:21:;--,1,$      ",
"$%&&&22,372214q0r86987385520qqwtyye06w0tqwaitittyrywwiw0rrr86420w425360qwrt0wqqr8r5q600wewtywqeetwttqyw00q0wtw,1:::;-,-5=$  .  X",
"@*&&*,1;:::353902qq56882228wyytw0t60qqw0wqwesyyetiyiwirrt0206q6w66462218q806wtq088680qw6e0ewytyiaww0qqqqqwqq680212:;-25,:$     .",
"##&-$22:*-:;54888026686333800wiy0qq066qqrww0qywyiuyyy08qq94ww0trr0472246260qqrq321660060tet0tiaetieyqwwr0q0tw5888512;282,@     .",
"@+$&&:211,123585660608625520wt6q0066qqw0qw0q0q0twyuqqwq6r0r00rr0rwq532632870082664660wwwqetqttyqiywqwt0w0qwwtwtyu8212221-$      ",
"OO+&&,313;53523878438788828qyq080qqeqqq0r22888280rwrwqr808q0w0r8uu80632,3787072qyww6060rwq00iiwiiy00uqttwwwwt0ttq66428:11$      ",
"X##-:18:1223138773qq852813300wir6t06qw826861788088q88qq8rw8u00wtyq8r6637588084ruqtwtuq6wewwytiwet0wtqt0wtrqq0qisirw4222,*$      ",
"+$&*;5311:227036638267891626880w0w48888826517q8208030q0r6qetwwwyttqt888322022wwr5qyyi08t0qqwwiwwwie0wtwqwt80qr0rq0t3272:=%      ",
"+@%&-111:413287878468847557678r8w8103858845,388788q4686r0q000twywieq0wq8465298qu600wiq085660tqyeqe0qqq6rqtqw00yq5623731::$      ",
"%@$+&:2::3,2254826400832866884rqq67672:2372:75868680884wiqi0q0tiwwyu0w0qq0q88rw0wqrqwt88q8t0iywte0t0i0wq8q8846q362,>::--:X     .",
"O$##-:12,421187332300214731:6280w4522:1:1:,,;5888qq840rrtq26qtwyqieqqtqw68r688qr6wwwrrq6qwwyqeqqwqw0w0wqqq841262;:2*:11;;%      ",
"O@&**,11343286222264q:2613,1:888q21112112611,6<882q808rrw0wwwrwryqtt8q00800q08q8068wet6t0wwt0wyaye0eqt805qq82:2:,2:--11:,$      ",
"o$O#&1113;178,2824986335,26212,27111:1:-2221246008r880rrqwq0rwwt0twt0qw638rq0qr55880t0eywtiyqtqtyttqwt066866524441223:11:@      ",
"O#&&:1326,,52685622:23,36-2-12223:21:*-:;112262268648888w8q2qw80wwetqw0000rw84772880twewwytiyytwqweqt0w8w88,,241,,,23-11$&..  . ",
"@$&$&131168822666847214;,:22,2622411:1-::22:,4044882488rqw2688ww80twy0w0858qw43644,6wqq00eweqywtew0wt0qqr825:;,&--;;1:1:-#    . ",
"O$@$#-1:1848224,2662,,,24;;2&2,223,1,*:&;225,4664462;8600456805wqq68e000q624056444,220w0eeww0e0e606q0q0q0,,,,;::-:322,::-+  ..  ",
"#@@$+&@$&*$**-&&##&#$*###%O$@O&&&&$X#$@&%$&=%$**--=%=,*,&;**%*=*==>*;*&;;%%-&%*&%&%;*;*;*<=;==>;>*>===*##%##$@+@@#-%*&@#@+     .",
"O@O&@       O .                         .        ...  ....   .. .  ..          .  . . . ..X o  X .X.  ..         ..  ...        ",
"@O#X    .    ... . .                  X.      . X     .O.     ..X. . X .  .        .  .. ...X .. X.. X           ..   X ..      ",
"@Oo           ..  .                    .        .X   ..   . .  . ..o                  .  ..X..X. . . X X..       . . . X    .   ",
"+O..   . . X      .                           ..       .  XXX  X  .XO  ....          .   X.  .X.  XX   .   .   .o  ..  X.. X  . ",
"O   .     .    .   .                     .    .X .... .  .  . .  .. X.. ....  .  . .   .XXX. X .o .   .  ...  .  X X ..o..      ",
"&o . ..    .  X. .X. X.  .                . .   X. XX .    . ..  .X .X.. . X .X    XXX.Xo.. ..X..o.Xo . o.  X.   . X.X .X.  .. $",
"8<<<<<<<4<,,>;##&&%==*,;=>>==,<<>>&&=&%=,,;#*&$&$+#%$#$-$&++$+oO+#%O$$&+###-&$*--&-$+@-#+&$@$$$$$-1&-:$@#&---,<<,<4<<<><<>><6<<0",
"86q<66086664<>=*,==:;<>,>>><;424<<>>=,<<<42,&&&-@%%&;**--&-@@O.O*#&&%*@&&&-&-$*:-----&&&%-#&@$$-&1131&@&-&&-,:4666460<6<<<8<<<86",
"eww0000w80066,:,;>>;452448,<4<408604<4460<<:,--**:-,:-&&#&$%O   @&:;*---$:$-=;=--::&#&----&--$@-::313&$-*&&-<400<86<6<0qew0w6w00",
"0weeeweee0q66<:1<262<40,554600qqqwqq<0wq05<2*:2,&;=521::-**@    O@=-:&:-:--1--,,:-:---:----$---@-:113-&-:-:3<200ewwqw060ww0e000e",
"aaaeeyeewyww884:221658076q8e0yyiyeey0t0qwq06875,44344221:,*     #@$*13-:12&2,2:11111:1:1--:-:::&&-:71&&::,:29qrraeeeeyeyeaaea0ae",
"dggffggggfiwt0r96qqrwuuuwapddjfdggggfstaaateuuqrrr0rq7392:o     +@&*:3337802,89r9993133111:-13:11:197117377rpphpaddagsgggddddggf",
"dggaydagsaee60265468rrqwqtwydadadagdiasaiwtwqrr886q780774*    ..%$$*:15-127311q1373311711-:-1&:-:-::1:::3:ruupprdgfaiaggafadadag",
"eeaaaysyeqq088q57,57846q68wiyiitiyiaeiay6wq07q0q3476835,1%    ..#+#*;,::11567;27333111:13-1:-&-:--$$1-&-:1799rrueaaa0yiyaeeaadaa",
"aeasaeaaye06008588778w608wiytytuyqieaqyywqr7427q82884842;&   . X$#&*:11-1-575,32331-:111:--:-&----&&&---::99prppiiirweiaaaaaeeae",
"eaeaaaaai0qqtt888755288qqytiqtyiietwwe0trw468586088989:2,*      $$$::2::1111713:7333:::11:::::&-&&---&---:99r9uuswityweaeeaaaead",
"sa0eaaeaett088068248848ttyiuesitq0wewr0eq580888044346,256%  . ..%@*$&:::21325322333113:1--:&:&---&:-&-:&:::99upuewrw0rweeeaeaeaa",
"eaaeesasytwtw6w52880880iswswtwww0w60806q83746607685675422%      +*@&&21,22213111:31::1::::&::-$$-----&$&:::37ruu0wqw0800eaeaaaee",
"eaeeedaeywetr804r88374tuttu0850w50836q800588046884q982482=      OO%=&13132:3655,:33:3:3:-----:---$-&&&-&::1:39u9w000qq0tyyqyaeaa",
"eeeeeaadsiitw229q614800ititt8w38q56,60888628838807643221:%      $$&;$1:13,115112373:3:-$::::1&:-&-&-&&&::-::3999t0w45qtwtqtweeea",
"eyeseeeestytq27715668qwqwipyq8828848w05788408867q58546:,<%      +&@&-7121,1252-13:33-:3--:1:::1-&:&-&--:-::::799wr0,840qeweeeyae",
"aieaeeaapiyrw4355524qyistdwq808046687480788qq3385682861=:-.     $$*;:12:512:11763:31:::--:1:1:&--&-&&-&:::113179i02:26tteeyeaeee",
"ayeyetyiiiiiw42464028wyyyyq808r805988868838qr7526412843,1&      $+$O*,2,:-212253211&11--&:3:7:---:::&&&-:-:::117w1,,6,0wtwiyyiq0",
"qwwe0w0iaatyew8800860qyiitw06809q50528448,3qr7q87722822:,$     .@%%#:2:;2;,21562,,1:2*---1373-$-:--11--$-::::::7q332640wiqqrrq0t",
"0eewttytisiywr5456q<qtetyiw8q486996660638930r6888857845:,%      O&#%-41,:-::1,3,21212::--1773::-$-:33---&------7,24966qittttetwt",
"ewteeaeiiyiwrq884600ysyyui88t68847q0864684868qw880855751;$      #%*=:1:,11212,113112,---:31133:--$:731-:&-&:-3:--::8<q0q0twyeqwq",
"eeeaeiieyisy0808660qiyat0i808q6782q67863864q6800q73644264@      $$;%;1,:;-1,1,4::32,1:--:1173:11::1331:---&--::-:-;,408ryiy0tyiq",
"aqweaiieisiyw8068wwqteetii8qr481q458488225660qqq0886012,,%      #$-%-1:1:-2,7221,2:::$-&::1117111133:-&-&:----::1::170rtww0eqtyt",
"yqwqyyiaiaiwr048800yyaaiw06q0789824782q285245w0t6w7488334&      O@-&:11:,1,113122121,:-&&:::1:1133-:--&-&&:::::-2,&,12rrwqtiiwye",
"yyewwwteyyi8q46260qtieyiwq6r872822802q88880800qr087333622$.     #+-&-231112514,231:1:::@--:-1:-:3:-&&--&-:---:::,,,4260wywwtw0ii",
"tsi6etyysyt00q0666wtywiq88863856584854rq65406q6r082828022&     .O$%=-,2,11123811,311:1::-:1--11:-1:-&-$::$::1-111:21,78u0yweqiet",
"q00eqyyatyiweewwtwwtywwwrr80r980854079188362880www6312,4,&      $*&*-12331215223311:,3:1-::%-11-:&-:------1:1--1&;133;7qwwwwieuw",
"twweqewyystqttiipwitqqiy088468028342786268668ww6008521422#      +&$*:1116311472532211121--:-&::---:-1-$--:--1:1:21,,27696qwyyyqy",
"wiiyyqwwiaaeadaeuyyyyii0q88800w605232116346006qq8885444,4#    .X@%---3-2147442,,3,11-::1::::&:::--::1--$:1:&:1-1-:-3164386iyatyt",
"yyyweityeaesiiyq6tyyiyuww080646088332317q8860qqt08r82684<*    ..@#&;=,2;182612:,::11-21:::-&--&------&:----11-::,,1,5:214qytuwy0",
"q0waeyyaaseyatqwywyuwyt0q08t658wq5722161884qr0050r8828272% .   .+#%%*-71152233112211:2,1:-----&$-&:&-&$$-:::-::--:,,;,836456qq60",
"qwe0iiayaayaeqqqqttttuww08q8638695157221,45qwq60qq87q8442%    ..+$#&;52313623,41,3:-1:-:1----::&&--:----*&1-21251-223,442,60qwqi",
"i0yaieweaaqiyeeet00tutrtuq78508802712:332,206q0w0q085q66<*      +%**;452,125613,3,21:1-1--:-::&@--1-&--:,-1-23222,-1:25,16wq66ew",
"tiwyiyiwiieitytq0wqtttiy05w4446w052:111,2:2rrq0q086875424=.    .@%%-:826,15735321111-31:----1-1:&-----$:-111::1371:1232,:8wqqqrt",
"twt0e0yiqyeaett60eqetyyy0280q84881,,7,212216wq0qu887q8402;     .$%&;-5721:253753:31111---:2::1---:----:-::::13111:-121620q88rtiw",
"w0qyyiwteeiywwuqqqettq000q058412,,3:1:2:27268wqqr80r06886;      +%&*:631:,27243731:2::1:-1--:::-:11:-1--::21111::-1122:q0860w0ut",
"6wettt0qqyei0yqyttq000qwrwu6::35112,,1,,112190808r8r0q852;    . $#*::12,32637,:5:11::11--11--272-11-:::--121::1:1::116200366qq8q",
"w6ttiwwtyeytttw0qwwetw0wrq4213462,111111131288364q000w874-      #@=;,112-2663:31:22:121:1,,11221111:71::-::211:11-1:120006q8r0r0",
"eqqwwqewtwqytwtt00qtw0ttq011287527635212,2,,6131212qwr834;     o$$:,;3:-122:22:23711152679:1322473:93:111:-22:2:1--:2586q06w0w0w",
"wtqiwyweayyywqw0ttwtewqwqq031:233512:2111:,241112868qe828*..  . *;:,:,3:1276,2:52,,474878597111233111:197922:31:%:121:778q60rqty",
"a0ywe0tiaeyaww0qiq0eq00wq8r513345,71:1112:11,2512842886;2& .. ..=&=>115225;237684232766q9311214,3:-:-33387-::::&--1775258rw00iit",
"ywtqwi0isqttut0tytwitw0iwwq81,13842,51311:312:3,,23880r70; . .X.*&<=;54<5363300060264q061252145q31:3119973:1,:11-,2,3122000t0yai",
"wt6eyrwtatettywtqqeqqqq000q3:84522322357155356538482770q4= . ..X;=>,;4<2423,5888qqtqe0580533767q99937137923:121::&:2:26680600wet",
"t0eyyiqtyitet0rwtw082qt0w865:0546228374331351,5;,838683w0,..   o;;,<:988,2,888700000yqwyt86q8845999717331223;2,:12;-22305q68806q",
"060wrywyyiwiuutrqr6640rtr62-2937,2:8885,27344:58327686268= . ...,<,,208484507q8qwrw0ywwq0rrwr4223737233:1,11*1;:21,2,289,406000r",
"wertywitiwqiy08622852888472246282226q97,132742,0680qq6084*.    .*<;,,8q52wqqe0qwttqwwttq828t842873339333221:112::3;12467256qqq6w",
"iqyywrywtery0r88,65:4612023;1617260488714544,1248328w0tr5&    . =#&,2888t0yw0qee0t0wtwr,33123,14377:3:778,8871:1,-1;24835560uwww",
"iqat0wtrtwiw62835462108821:339226189562557134242812408w05,.    .==:,2yiywttwteeqyqytit82663461,597331733,083,-:2,--2:,56680qqqwq",
"yitwqwyyit603142:28473832558634376q4565551642213473208y44; .    %%,440t0eq0ewttytyttsw280806680679997193467q11,1::3:,214,8600tty",
"tsi8w0wtu0w5232332337724254643,365688627561561-,1420q05ww;X  . .%=><<aeweqweaaeaasittt426068r65580q857417556,1,&:-32134,26q88wtw",
"y08400qtrrq84845476322304262552348958862497232,1562000wyw>.    o%=<>0ew80eeeaeeatseyyw228q6r6q66r86q8r4855q32,-23:1162639008qqie",
"r4200wwqr00074935562:80rr82q722828847005604,4:334288q2w00=...  .,=54wwe0eeqaaeaeyqttw452998520q88600q882483,3,,13::2278486qtqwww",
"80w888r80rwq68q82262280808811274573548q6562835211246406w0> .  .X<<400aaeweaeeyaaiitqw768qq488q628q0w33682572211:21712226rr860w00",
"qyw5048tq7t07w08757:06848822248,257800r087072832:,4650q66=..   .<<60qea0easaeeaayir00000008q8qw898662946636123;,31221320886wwe6w",
"iwt0wqw65510rq8443772000862;20q45684qw50q8524381211265000=  .o. ><<8edaaaaayaeyayiq8q48056076808q0q06787286:1,:27211752566q000qw",
"ttwiw6w7,46368w5,7708068t888qwt80w04446068045131::2450500,  ..oX><<00aasaaaaiweeiiq44885988808r80wwww46523822:;21,,1:576q262666w",
"q8q485422227,8822180052wwq6008w08088685,181731,1122,600<0= . . o>4<6<gdewee6<6waru00042486887q49q86wr7623831;:&;111:15236446656e",
"qq22,42,52,222,2:2<80480080060808025<45<,2,;,,,::,::24265> . ..X=>4<6yiw0044266yq65q66q664445800q8200,<424,,1--*-;,;;2624422,206",
">**&*#&&%$#=%$%%##=*=**-**;&>;#*;-,:=;%%###@#$##$%$@%*%&*o  .o X>=&440,,>=*=#=&==&:=**==*=*=%+;:$;*=*&$#*%@$O@+@$#$O&%&%-$&$*&*&",
"                         ..  .X.. .    .       .            . . #=#==X ..X.oX     .    .XX      .     X               ..        ",
"                 .      X  .                                   X%*#+.X. ..o.. .   .  X X.XX          .                    .     ",
"                   ....  X       .     X                .       O#+  .  .. .      Xo. .  . X.  .. .              .              ",
"            . .  . .          . X                             . oo.       .   .   .       ..               .                    ",
"          . X.    .X .X ..    . . .  .                          X         .  .X. .   .  XX.   .XX    .               .          ",
"  .       .X  .    X ...  oX ...OXX .       X .     . . .      @&O        X.Xo ..   .o . X. X  X.. .X                    .      "
};
