/* XPM */
static char *Tilesdarktolight1721643575[] = {
/* columns rows colors chars-per-pixel */
"65 64 256 2 ",
"   c black",
".  c #0000A8",
"X  c #00A800",
"o  c #00A8A8",
"O  c #A80000",
"+  c #A800A8",
"@  c #A85400",
"#  c gray66",
"$  c gray33",
"%  c #5454FC",
"&  c #54FC54",
"*  c #54FCFC",
"=  c #FC5454",
"-  c #FC54FC",
";  c #FCFC54",
":  c gray99",
">  c #ECECEC",
",  c gainsboro",
"<  c #D0D0D0",
"1  c #C0C0C0",
"2  c #B4B4B4",
"3  c gray66",
"4  c #989898",
"5  c gray55",
"6  c #7C7C7C",
"7  c gray44",
"8  c #646464",
"9  c gray33",
"0  c #484848",
"q  c gray22",
"w  c #2C2C2C",
"e  c #202020",
"r  c #FC0000",
"t  c #EC0000",
"y  c #E00000",
"u  c #D40000",
"i  c #C80000",
"p  c #BC0000",
"a  c #B00000",
"s  c #A40000",
"d  c #980000",
"f  c #880000",
"g  c #7C0000",
"h  c #700000",
"j  c #640000",
"k  c #580000",
"l  c #4C0000",
"z  c #400000",
"x  c #FCD8D8",
"c  c #FCB8B8",
"v  c #FC9C9C",
"b  c #FC7C7C",
"n  c #FC5C5C",
"m  c #FC4040",
"M  c #FC2020",
"N  c #FC0000",
"B  c #FCA85C",
"V  c #FC9840",
"C  c #FC8820",
"Z  c #FC7800",
"A  c #E46C00",
"S  c #CC6000",
"D  c #B45400",
"F  c #9C4C00",
"G  c #FCFCD8",
"H  c #FCFCB8",
"J  c #FCFC9C",
"K  c #FCFC7C",
"L  c #FCF85C",
"P  c #FCF440",
"I  c #FCF420",
"U  c #FCF400",
"Y  c #E4D800",
"T  c #CCC400",
"R  c #B4AC00",
"E  c #9C9C00",
"W  c #848400",
"Q  c #706C00",
"!  c #585400",
"~  c #404000",
"^  c #D0FC5C",
"/  c #C4FC40",
"(  c #B4FC20",
")  c #A0FC00",
"_  c #90E400",
"`  c #80CC00",
"'  c #74B400",
"]  c #609C00",
"[  c #D8FCD8",
"{  c #BCFCB8",
"}  c #9CFC9C",
"|  c #80FC7C",
" . c #60FC5C",
".. c #40FC40",
"X. c #20FC20",
"o. c #00FC00",
"O. c #00FC00",
"+. c #00EC00",
"@. c #00E000",
"#. c #00D400",
"$. c #04C800",
"%. c #04BC00",
"&. c #04B000",
"*. c #04A400",
"=. c #049800",
"-. c #048800",
";. c #047C00",
":. c #047000",
">. c #046400",
",. c #045800",
"<. c #044C00",
"1. c #044000",
"2. c #D8FCFC",
"3. c #B8FCFC",
"4. c #9CFCFC",
"5. c #7CFCF8",
"6. c #5CFCFC",
"7. c #40FCFC",
"8. c #20FCFC",
"9. c #00FCFC",
"0. c #00E4E4",
"q. c #00CCCC",
"w. c #00B4B4",
"e. c #009C9C",
"r. c #008484",
"t. c #007070",
"y. c #005858",
"u. c #004040",
"i. c #5CBCFC",
"p. c #40B0FC",
"a. c #20A8FC",
"s. c #009CFC",
"d. c #008CE4",
"f. c #007CCC",
"g. c #006CB4",
"h. c #005C9C",
"j. c #D8D8FC",
"k. c #B8BCFC",
"l. c #9C9CFC",
"z. c #7C80FC",
"x. c #5C60FC",
"c. c #4040FC",
"v. c #2024FC",
"b. c #0004FC",
"n. c #0000FC",
"m. c #0000EC",
"M. c #0000E0",
"N. c #0000D4",
"B. c #0000C8",
"V. c #0000BC",
"C. c #0000B0",
"Z. c #0000A4",
"A. c #000098",
"S. c #000088",
"D. c #00007C",
"F. c #000070",
"G. c #000064",
"H. c #000058",
"J. c #00004C",
"K. c #000040",
"L. c #282828",
"P. c #FCE034",
"I. c #FCD424",
"U. c #FCCC18",
"Y. c #FCC008",
"T. c #FCB400",
"R. c #B420FC",
"E. c #A800FC",
"W. c #9800E4",
"Q. c #8000CC",
"!. c #7400B4",
"~. c #60009C",
"^. c #500084",
"/. c #440070",
"(. c #340058",
"). c #280040",
"_. c #FCD8FC",
"`. c #FCB8FC",
"'. c #FC9CFC",
"]. c #FC7CFC",
"[. c #FC5CFC",
"{. c #FC40FC",
"}. c #FC20FC",
"|. c #FC00FC",
" X c #E000E4",
".X c #C800CC",
"XX c #B400B4",
"oX c #9C009C",
"OX c #840084",
"+X c #6C0070",
"@X c #580058",
"#X c #400040",
"$X c #FCE8DC",
"%X c #FCE0D0",
"&X c #FCD8C4",
"*X c #FCD4BC",
"=X c #FCCCB0",
"-X c #FCC4A4",
";X c #FCBC9C",
":X c #FCB890",
">X c #FCB080",
",X c #FCA470",
"<X c #FC9C60",
"1X c #F0945C",
"2X c #E88C58",
"3X c #DC8854",
"4X c #D08050",
"5X c #C87C4C",
"6X c #BC7848",
"7X c #B47044",
"8X c #A86840",
"9X c #A0643C",
"0X c #9C6038",
"qX c #905C34",
"wX c #885830",
"eX c #80502C",
"rX c #744C28",
"tX c #6C4824",
"yX c #5C4020",
"uX c #543C1C",
"iX c #483818",
"pX c #403018",
"aX c #382C14",
"sX c #28200C",
"dX c #600064",
"fX c #006464",
"gX c #006060",
"hX c #00001C",
"jX c #00002C",
"kX c #302410",
"lX c #480048",
"zX c #500050",
"xX c #000034",
"cX c gray11",
"vX c #4C4C4C",
"bX c gray36",
"nX c gray25",
"mX c gray19",
"MX c #343434",
"NX c #D8F4F4",
"BX c #B8E8E8",
"VX c #9CDCDC",
"CX c #74C8C8",
"ZX c #48C0C0",
"AX c #20B4B4",
"SX c #20B0B0",
"DX c #00A4A4",
"FX c #009898",
"GX c #008C8C",
"HX c #008484",
"JX c #007C7C",
"KX c #007878",
"LX c #007474",
"PX c #007070",
"IX c #006C6C",
"UX c #980088",
/* pixels */
"nXnXnXnXnXnXnXnXnXnXnXnXnXnXnXnXnXnXnXnXnXnXnXnXnXnXnXnXnXnXnXnXnXnXnXnXnXnXnXnXnXnXnXnXnXnXnXnXnXnXnXnXnXnXnXnXnXnXnXnXnXnXnXnXnX",
"nXq q q q q w mXnXq q q q q w mXnXq q q q q w mXnXq q q q q w mXnXq q q q q w mXnXq q q q q w mXnXq q q q q w mXnXq q q q q w mXnX",
"nXq 0 q w L.e e nXq mXmXL.w e e nXq w q nXnXe e nXq 0 nXq q e e nXq e e e e e e nXq e L.L.w e e nXq q q w w e e nXq q w w MXe e nX",
"nXq q mXL.L.e e nXq MXmXL.w e e nXq q q nXq e e nXq 0 0 nXmXe e nXq e e L.e e e nXq L.e L.L.e e nXq 0 nXq mXe e nXq q mXq q e e nX",
"nXq q q w w e e nXq q w L.w e e nXq mXMXq MXe e nXq $ vXnXmXe e nXq e L.L.w e e nXq L.L.e e e e nXq 0 nXq q e e nXq nXq MXmXe e nX",
"nXq q MXw L.e e nXq q w L.w e e nXq mXq q q e e nXq $ 0 q w e e nXq e L.w mXe e nXq L.w L.L.e e nXq vXnX0 MXe e nXq 0 q q q e e nX",
"nXw e e e e e e nXw e e e e e e nXw e e e e e e nXw e e e e e e nXw e e e e e e nXw e e e e e e nXw e e e e e e nXw e e e e e e nX",
"nXmXe e e e e e nXmXe e e e e e nXmXe e e e e e nXmXe e e e e e nXmXe e e e e e nXmXe e e e e e nXmXe e e e e e nXmXe e e e e e nX",
"nXnXnXnXnXnXnXnXnXnXnXnXnXnXnXnXnXnXnXnXnXnXnXnXnXnXnXnXnXnXnXnXnXnXnXnXnXnXnXnXnXnXnXnXnXnXnXnXnXnXnXnXnXnXnXnXnXnXnXnXnXnXnXnXnX",
"0 q q q q q w q 0 vXvXvXvXvX0 q 0 vXvXvXvXvX0 q 0 vXvXvXvXvX0 q 0 q q q q q w q 0 q q q q q w q 0 q q q q q w q 0 vXvXvXvXvX0 q 0 ",
"0 q MXq mXw e L.0 vX0 0 0 0 nXL.0 vX$ vX$ $ nXL.0 vX8 bXbX8 nXL.0 q q q q q e L.0 q q q q 0 e L.0 q 0 nXq mXe L.0 vX0 nXnXq nXL.0 ",
"0 q MXmXmXw e L.0 vX$ 0 0 nXnXL.0 vXbX8 8 bXnXL.0 vX7 8 bX8 nXL.0 q nXnX0 nXe L.0 q nXq nX0 e L.0 q $ nXMXmXe L.0 vX0 nXnX0 nXL.0 ",
"0 q MXq w e e L.0 vXvXvXvXvXnXL.0 vX$ bX7 bXnXL.0 vX7 7 8 8 nXL.0 q nX0 0 0 e L.0 q 0 0 nXvXe L.0 q $ 0 mXmXe L.0 vX0 0 nX0 nXL.0 ",
"0 q q q mXmXe L.0 vX0 0 0 vXnXL.0 vXvX$ 7 8 nXL.0 vX8 7 8 8 nXL.0 q q 0 0 0 e L.0 q nXnXq $ e L.0 q vXnXw w e L.0 vXvX0 0 nXnXL.0 ",
"0 w e e e e e L.0 0 nXnXnXnXnXL.0 0 nXnXnXnXnXL.0 0 nXnXnXnXnXL.0 w e e e e e L.0 w e e e e e L.0 w e e e e e L.0 0 nXnXnXnXnXL.0 ",
"0 q L.L.L.L.L.L.0 q L.L.L.L.L.L.0 q L.L.L.L.L.L.0 q L.L.L.L.L.L.0 q L.L.L.L.L.L.0 q L.L.L.L.L.L.0 q L.L.L.L.L.L.0 q L.L.L.L.L.L.0 ",
"0 0 0 0 0 0 0 0 0 0 0 0 0 0 0 0 0 0 0 0 0 0 0 0 0 0 0 0 0 0 0 0 0 0 0 0 0 0 0 0 0 0 0 0 0 0 0 0 0 0 0 0 0 0 0 0 0 0 0 0 0 0 0 0 0 ",
"$ vXvXvXvXvX0 0 $ vXvXvXvXvX0 0 $ vXvXvXvXvX0 0 $ vXvXvXvXvX0 0 $ vXvXvXvXvX0 0 $ vXvXvXvXvX0 0 $ vXvXvXvXvX0 0 $ vXvXvXvXvX0 0 $ ",
"$ vXvXnXnXnXnXq $ vXbX$ $ bXnXq $ vXbX$ 0 $ nXq $ vXbX7 6 bXnXq $ vXq nXmXnXnXq $ vXnXnX$ 0 nXq $ vXbXvXnXw nXq $ vXbX$ 0 nXnXq $ ",
"$ vX0 nX0 $ nXq $ vXbXbX$ bXnXq $ vX8 $ nXvXnXq $ vXbX8 6 8 nXq $ vXnXq nXnXnXq $ vX0 nX$ 8 nXq $ vX$ 0 q w nXq $ vXbXbXvX0 nXq $ ",
"$ vX$ 0 vXbXnXq $ vX7 6 8 $ nXq $ vX7 $ $ $ nXq $ vXbXbX7 7 nXq $ vX0 nX0 0 nXq $ vX0 0 8 8 nXq $ vXvXnXq mXnXq $ vX$ $ 0 vXnXq $ ",
"$ vXbX$ bXbXnXq $ vX6 6 7 8 nXq $ vX8 vX$ 0 nXq $ vX8 8 7 6 nXq $ vX0 0 nX0 nXq $ vX0 $ 8 8 nXq $ vX$ nXnXnXnXq $ vX0 nXnXnXnXq $ ",
"$ 0 nXnXnXnXnXq $ 0 nXnXnXnXnXq $ 0 nXnXnXnXnXq $ 0 nXnXnXnXnXq $ 0 nXnXnXnXnXq $ 0 nXnXnXnXnXq $ 0 nXnXnXnXnXq $ 0 nXnXnXnXnXq $ ",
"$ 0 q q q q q q $ 0 q q q q q q $ 0 q q q q q q $ 0 q q q q q q $ 0 q q q q q q $ 0 q q q q q q $ 0 q q q q q q $ 0 q q q q q q $ ",
"$ $ $ $ $ $ $ $ $ $ $ $ $ $ $ $ $ $ $ $ $ $ $ $ $ $ $ $ $ $ $ $ $ $ $ $ $ $ $ $ $ $ $ $ $ $ $ $ $ $ $ $ $ $ $ $ $ $ $ $ $ $ $ $ $ ",
"bXbXbXbXbXbX$ vXbXbXbXbXbXbX$ vXbXbXbXbXbXbX$ vXbXbXbXbXbXbX$ vXbXvXvXvXvXvX0 vXbXbXbXbXbXbX$ vXbXvXvXvXvXvX0 vXbXvXvXvXvXvX0 vXbX",
"bXbXbX$ 8 7 vXnXbXbX5 6 5 5 vXnXbXbX5 6 7 7 vXnXbXbX6 6 6 6 vXnXbXvXvX$ nXvXnXnXbXbX0 bX7 6 vXnXbXvX$ 0 nX0 nXnXbXvX8 $ nXMXnXnXbX",
"bXbXvX$ 8 6 vXnXbXbX5 6 5 5 vXnXbXbX5 6 6 7 vXnXbXbX6 6 6 6 vXnXbXvX$ $ 0 0 nXnXbXbX0 8 7 6 vXnXbXvX$ 0 bX8 nXnXbXvXbX0 nXnXnXnXbX",
"bXbXbX8 6 6 vXnXbXbX5 6 6 5 vXnXbXbX5 6 5 7 vXnXbXbX6 6 6 6 vXnXbXvXvX$ $ 0 nXnXbXbX$ bX7 6 vXnXbXvX$ bX$ $ nXnXbXvXbXvXnX0 nXnXbX",
"bXbX8 8 6 5 vXnXbXbX5 5 6 5 vXnXbXbX5 5 5 6 vXnXbXbX5 5 5 6 vXnXbXvXvXbXbX0 nXnXbXbXvX8 6 6 vXnXbXvX8 $ vXvXnXnXbXvX8 bX0 nXnXnXbX",
"bX$ vXvXvXvXvXnXbX$ vXvXvXvXvXnXbX$ vXvXvXvXvXnXbX$ vXvXvXvXvXnXbX0 nXnXnXnXnXnXbX$ vXvXvXvXvXnXbX0 nXnXnXnXnXnXbX0 nXnXnXnXnXnXbX",
"bXvXnXnXnXnXnXnXbXvXnXnXnXnXnXnXbXvXnXnXnXnXnXnXbXvXnXnXnXnXnXnXbXvXnXnXnXnXnXnXbXvXnXnXnXnXnXnXbXvXnXnXnXnXnXnXbXvXnXnXnXnXnXnXbX",
"bXbXbXbXbXbXbXbXbXbXbXbXbXbXbXbXbXbXbXbXbXbXbXbXbXbXbXbXbXbXbXbXbXbXbXbXbXbXbXbXbXbXbXbXbXbXbXbXbXbXbXbXbXbXbXbXbXbXbXbXbXbXbXbXbX",
"8 6 6 6 6 6 7 $ 8 6 6 6 6 6 7 $ 8 6 6 6 6 6 7 $ 8 6 6 6 6 6 7 $ 8 bXbXbXbXbX$ $ 8 bXbXbXbXbX$ $ 8 bXbXbXbXbX$ $ 8 bXbXbXbXbX$ $ 8 ",
"8 6 bX6 4 4 8 0 8 6 5 5 4 4 8 0 8 6 4 4 5 6 8 0 8 6 5 5 6 6 8 0 8 bX8 bX8 bXvX0 8 bX8 6 6 6 vX0 8 bX7 8 bX8 vX0 8 bX6 7 7 8 vX0 8 ",
"8 6 bX7 4 4 8 0 8 6 5 5 4 4 8 0 8 6 # 4 5 6 8 0 8 6 6 5 6 6 8 0 8 bX7 7 6 7 vX0 8 bX8 7 7 6 vX0 8 bX8 8 7 7 vX0 8 bX5 6 7 8 vX0 8 ",
"8 6 $ 8 5 5 8 0 8 6 # 4 5 5 8 0 8 6 # 4 5 6 8 0 8 6 4 5 5 5 8 0 8 bX6 7 7 7 vX0 8 bX8 7 6 5 vX0 8 bX7 8 8 bXvX0 8 bX5 6 7 7 vX0 8 ",
"8 6 8 6 5 5 8 0 8 6 4 4 4 5 8 0 8 6 4 4 # 5 8 0 8 6 5 5 5 6 8 0 8 bX6 5 6 7 vX0 8 bX7 6 5 4 vX0 8 bX6 8 8 8 vX0 8 bX5 5 7 7 vX0 8 ",
"8 7 8 8 8 8 8 0 8 7 8 8 8 8 8 0 8 7 8 8 8 8 8 0 8 7 8 8 8 8 8 0 8 $ vXvXvXvXvX0 8 $ vXvXvXvXvX0 8 $ vXvXvXvXvX0 8 $ vXvXvXvXvX0 8 ",
"8 $ 0 0 0 0 0 0 8 $ 0 0 0 0 0 0 8 $ 0 0 0 0 0 0 8 $ 0 0 0 0 0 0 8 $ 0 0 0 0 0 0 8 $ 0 0 0 0 0 0 8 $ 0 0 0 0 0 0 8 $ 0 0 0 0 0 0 8 ",
"8 8 8 8 8 8 8 8 8 8 8 8 8 8 8 8 8 8 8 8 8 8 8 8 8 8 8 8 8 8 8 8 8 8 8 8 8 8 8 8 8 8 8 8 8 8 8 8 8 8 8 8 8 8 8 8 8 8 8 8 8 8 8 8 8 ",
"8 6 6 6 6 6 8 bX8 4 4 4 4 4 5 bX8 4 4 4 4 4 5 bX8 4 4 4 4 4 5 bX8 6 6 6 6 6 7 bX8 6 6 6 6 6 7 bX8 bXbXbXbXbX$ bX8 6 6 6 6 6 7 bX8 ",
"8 6 7 5 5 5 bXvX8 4 5 5 5 # 7 vX8 4 # 4 5 6 7 vX8 4 4 5 4 5 7 vX8 6 6 4 5 6 8 vX8 6 7 6 5 5 8 vX8 bX5 6 7 8 vXvX8 6 5 5 4 5 8 vX8 ",
"8 6 6 5 5 5 bXvX8 4 5 4 4 # 7 vX8 4 # # 4 5 7 vX8 4 4 5 4 4 7 vX8 6 5 4 5 6 8 vX8 6 7 6 5 # 8 vX8 bX5 6 6 7 vXvX8 6 4 5 5 5 8 vX8 ",
"8 6 7 6 6 6 bXvX8 4 4 5 4 # 7 vX8 4 # # # 4 7 vX8 4 5 5 4 4 7 vX8 6 6 4 5 5 8 vX8 6 4 5 4 # 8 vX8 bX6 6 6 7 vXvX8 6 4 5 6 6 8 vX8 ",
"8 6 8 6 5 5 bXvX8 4 5 5 4 4 7 vX8 4 2 # # # 7 vX8 4 5 5 4 4 7 vX8 6 6 5 5 5 8 vX8 6 4 5 5 # 8 vX8 bX5 6 6 6 vXvX8 6 4 5 6 7 8 vX8 ",
"8 8 bXbXbXbXbXvX8 5 7 7 7 7 7 vX8 5 7 7 7 7 7 vX8 5 7 7 7 7 7 vX8 7 8 8 8 8 8 vX8 7 8 8 8 8 8 vX8 $ vXvXvXvXvXvX8 7 8 8 8 8 8 vX8 ",
"8 bXvXvXvXvXvXvX8 bXvXvXvXvXvXvX8 bXvXvXvXvXvXvX8 bXvXvXvXvXvXvX8 bXvXvXvXvXvXvX8 bXvXvXvXvXvXvX8 bXvXvXvXvXvXvX8 bXvXvXvXvXvXvX8 ",
"8 8 8 8 8 8 8 8 8 8 8 8 8 8 8 8 8 8 8 8 8 8 8 8 8 8 8 8 8 8 8 8 8 8 8 8 8 8 8 8 8 8 8 8 8 8 8 8 8 8 8 8 8 8 8 8 8 8 8 8 8 8 8 8 8 ",
"8 4 4 4 4 4 5 bX8 4 4 4 4 4 5 bX8 4 4 4 4 4 5 bX8 4 4 4 4 4 5 bX8 4 4 4 4 4 5 bX8 6 6 6 6 6 7 bX8 bXbXbXbXbX$ bX8 6 6 6 6 6 7 bX8 ",
"8 4 7 6 7 6 7 vX8 4 # 4 4 4 7 vX8 4 2 # 2 # 7 vX8 4 5 6 5 5 7 vX8 4 4 4 5 6 7 vX8 6 5 4 5 5 8 vX8 bX6 6 8 8 vXvX8 6 4 4 5 5 8 vX8 ",
"8 4 5 5 5 5 7 vX8 4 # # # # 7 vX8 4 # 1 2 # 7 vX8 4 4 5 6 6 7 vX8 4 5 4 5 5 7 vX8 6 5 4 5 4 8 vX8 bX8 7 8 bXvXvX8 6 4 4 4 5 8 vX8 ",
"7 4 5 5 5 4 7 $ 7 4 # # # 4 7 $ 7 4 2 2 # # 7 $ 7 4 4 4 4 6 7 $ 7 4 5 4 5 5 7 $ 7 6 5 6 6 6 8 $ 7 bX0 8 6 vXvX$ 7 6 5 5 4 6 8 $ 7 ",
"7 4 7 6 5 5 7 $ 7 4 # # # # 7 $ 7 4 # # 2 # 7 $ 7 4 4 # # 6 7 $ 7 4 5 4 5 6 7 $ 7 6 5 6 6 6 8 $ 7 bX$ bX7 vXvX$ 7 6 5 5 5 6 8 $ 7 ",
"7 5 7 7 7 7 7 $ 7 5 7 7 7 7 7 $ 7 5 7 7 7 7 7 $ 7 5 7 7 7 7 7 $ 7 5 7 7 7 7 7 $ 7 7 8 8 8 8 8 $ 7 $ vXvXvXvXvX$ 7 7 8 8 8 8 8 $ 7 ",
"7 8 $ $ $ $ $ $ 7 8 $ $ $ $ $ $ 7 8 $ $ $ $ $ $ 7 8 $ $ $ $ $ $ 7 8 $ $ $ $ $ $ 7 8 $ $ $ $ $ $ 7 8 $ $ $ $ $ $ 7 8 $ $ $ $ $ $ 7 ",
"7 7 7 7 7 7 7 7 7 7 7 7 7 7 7 7 7 7 7 7 7 7 7 7 7 7 7 7 7 7 7 7 7 7 7 7 7 7 7 7 7 7 7 7 7 7 7 7 7 7 7 7 7 7 7 7 7 7 7 7 7 7 7 7 7 ",
"7 4 4 4 4 4 5 8 7 4 4 4 4 4 5 8 7 4 4 4 4 4 5 8 7 4 4 4 4 4 5 8 7 4 4 4 4 4 5 8 7 6 6 6 6 6 7 8 7 6 6 6 6 6 7 8 7 4 4 4 4 4 5 8 7 ",
"7 4 5 5 4 4 7 $ 7 4 4 # 4 # 7 $ 7 4 2 # 2 # 7 $ 7 4 5 5 5 6 7 $ 7 4 6 5 4 4 7 $ 7 6 5 5 6 6 8 $ 7 6 7 5 5 6 8 $ 7 4 5 5 5 6 7 $ 7 ",
"7 4 5 4 4 # 7 $ 7 4 4 # 4 4 7 $ 7 4 # 2 2 4 7 $ 7 4 4 4 4 5 7 $ 7 4 6 7 5 5 7 $ 7 6 5 5 6 5 8 $ 7 6 6 7 7 7 8 $ 7 4 5 5 5 4 7 $ 7 ",
"7 4 4 4 # # 7 $ 7 4 # # # # 7 $ 7 4 4 # # 4 7 $ 7 4 4 4 # # 7 $ 7 4 5 5 7 6 7 $ 7 6 5 6 7 7 8 $ 7 6 7 bX8 7 8 $ 7 4 4 6 5 4 7 $ 7 ",
"7 4 4 4 # # 7 $ 7 4 # # # 4 7 $ 7 4 # # # 4 7 $ 7 4 4 4 4 # 7 $ 7 4 5 5 5 5 7 $ 7 6 5 6 6 7 8 $ 7 6 7 $ 7 7 8 $ 7 4 5 7 7 5 7 $ 7 ",
"7 5 7 7 7 7 7 $ 7 5 7 7 7 7 7 $ 7 5 7 7 7 7 7 $ 7 5 7 7 7 7 7 $ 7 5 7 7 7 7 7 $ 7 7 8 8 8 8 8 $ 7 7 8 8 8 8 8 $ 7 5 7 7 7 7 7 $ 7 ",
"7 8 $ $ $ $ $ $ 7 8 $ $ $ $ $ $ 7 8 $ $ $ $ $ $ 7 8 $ $ $ $ $ $ 7 8 $ $ $ $ $ $ 7 8 $ $ $ $ $ $ 7 8 $ $ $ $ $ $ 7 8 $ $ $ $ $ $ 7 "
};
