/* XPM */
static char *_cfc76e887cb46de8374a066178fccf1M4CDTDbS7ihvr5N7[] = {
/* columns rows colors chars-per-pixel */
"64 64 20 1 ",
"  c black",
". c gray11",
"X c #202020",
"o c #282828",
"O c #2C2C2C",
"+ c gray19",
"@ c #343434",
"# c gray22",
"$ c gray25",
"% c #484848",
"& c #4C4C4C",
"* c gray33",
"= c gray36",
"- c #646464",
"; c gray44",
": c #7C7C7C",
"> c gray55",
", c #989898",
"< c gray66",
"1 c #B4B4B4",
/* pixels */
"<1,,>,,>>,,>>,>>>,>,>>>>,,,>,,,>>>>,,>:>>>>>>>,>>>,>,>,>>>>>>>;%",
":-%$##$##&+#O+++@@##@X@$#@#$#%$#+@@+##@@X&O#+O@O++%@#@#O@+@#%%#X",
":*+#$##@%&#+OOXXO@@+O+@+#%$O@+@#@#####@#XO#%$%@#++@O#@#+#OoO@#+X",
"-%$#$$%%%&@$@OOo+$@@@##$O@#O+#%&%#%#+O+#$$$$O#O@@@@@+O$##@##@#Oo",
";&o####%#$+%%@o@+##%+@@#@#@%@#@#$#+oO#@#O+Oo@#@@###@@@@###$%#@#o",
"-*@#@#@#$#+#OXOXo+@##@++O$@#@#%##Oo@o+#+Xoo++@@%#%#+#+O%%#+#OX@o",
"-%#%#@+@@$@##$#++++O+##XO#@@@@@O#@o#OO@+X@####@###@#$+%&%@$#o###",
"-*$##$OOoooo.XX@oXoXoXX.X.XoXXXXX.XX.X+.XoXXXOXXXOoO+@+@%##%#$%@",
";*$@@OXX#.X...X$X.....X%$XX...X$$..X...#@.XXXXX##......$*%@#+#&#",
"-%@+$+++X      %X      $X      #X      #.      #X      $;&#+O@#+",
"-%##%O$XX      *X      *O      *o      *X      %.      *-%$OO#+#",
"-&$@$@$XX      %.      *o      *O      *X      *X      %-%O$+@#O",
"-&@O@+#XX      *o      *X      *.      *o      *o      %;=$@#O#X",
"-&+O+@#Oo      *X      *O      &X      *O      *X      *-=%@oOoo",
"-%##@#$XO      -+      ;+      -+      -+      ;O      =-*OoX$@#",
"-%#+O+@.%:>>,<,*&:,,><<**>,,,,<&$>,,,,<*&><<,,<**>,,>>>#;=X#@O#o",
"-&#oXOO.#...XXX$@XXXXX.%$..XXXX%$XX..XX%@.XX.X.@@X.....+-&o#+o%+",
"-*oO$$@O.      #X      %X      $.      %X      #X      #-%$@O++O",
"-&o##+#Xo      *o      *o      *.      *O      &X      &;&##o##o",
"-%+@@@@.o      *O      *o      *O      *X      *X      *-&+@$##X",
";&#O@++XX      *X      *X      %o      *O      *O      *--%$$%#+",
"-&@X+O@o.      %.      *X      &o      *X      *O      *;*#%@%+O",
"-*+X+o@oo      -+      ;+      -@      ;@.     -+      -;*#+#$@o",
":#+@O+@X%:>>,,<#+:,,,,<&*><,,,<%#:,,<<<&&><,,,<*&:,<,,<%-*#$#+#o",
";$$+@@@O@....XX$@..XXX.%%..XXXX#$.X.XXX%#XXX.X.$#..XX..@-*@+++#X",
"-&@@###o.      %.      %X      $X      %X      %X      O-*+#O#OX",
"*%##++#oX      =O      *X      *O      =O      *o      %;*O$##+@",
";%+o+X@oX      *o      *O      *O      *o      *o      &-&XOo@+X",
":%#@X@#Oo      *o      *o      *o      *O      *X      %-&@OO$$+",
"-*$O+@#XX      *o      *O      *o      *O      *o      *;&@oO##O",
"-=#@+++Xo      -O      ;O      ;+      ;+      -@      --*o+#@%O",
"-*O@+o+o#:>>,>,%*>,,,,<*#><<,,<*%;>,,,<*%>,,,,<*%>,,,,<*;&+@+#%+",
"-=O#%#@X#...X..#$XX...X$#XXXX..#@....XX%#.XXX.X##.XXXXX$:*#++#%+",
"=*+@@##oX      #X      %X      #X      %X      @.      #;&@##O$@",
"-&#O+O+oO      *o      *O      *O      *O      &o      &;%@$+@#o",
"=%@@O@@XO      *X      *o      *O      *o      *X      *;&@$$@%o",
"-&#OO@$Xo      *X      *o      &o      *O      *o      *-%#@##$#",
"-&#@OX+XX      *X      *X      *.      *o      *o      *;&###O#@",
"=*OO+OOoo      -+      ;O      =X      -+      -O      *-*#@+@#@",
"=%@@@O@o#:,,,,<*#>,,,,<%&>>>,,<#$:>,,,,&%>,,>><%%:>>,,<#-*#$##@O",
"=%O#@O@o#.X..X.$@...XXX%$...X.X%$......#$XX....+@....X.O;=###%$@",
"-*@+oO@OX      %X      %o      $o      $X      #X      +-%%+O#$o",
";*#oO@#OO      *o      %X      &O      *X      &X      *;*##$$%+",
"-=#O#$%OX      *O      &O      %o      *X      *o      *-&+%#+$X",
";%O+#$@o.      *O      &X      $o      %X      &.      *-%@@%@%o",
"-$O@+OoXX      *O      %X      *o      *o      $.      *-*@#+O$o",
"-$OX@@+++      ;O      -+      ;@      ;O      -+      =-&+ooO@X",
";&$##@+O*>,,,,,*%>,,,><*%><,,><**>,,>,<*@:,>>>>$&>>>,>>#=%+O#@@o",
";*##$%@X%.XX.XX%$.X.XXX#$.X...X%+.X....#@...X..O#X...X.$;*$@%##+",
"-&@#@@OoX      %X      #X      $X      $X      #.      %;*#$@$#+",
"-&##O@+XO      *o      &O      &.      *X      &X      %;*$@#@$+",
"-*#+#O@OO      *O      *X      *X      *o      *O      *-*@@@@$o",
"-&++#O##o      *O      *O      &X      *X      *.      $-%+O@##O",
"-*++OO##O      *X      *o      *o      %.      *X      &;-X+$+@O",
";=oOOo#OX      -X      -X      ;O      -o      -O      =-=OO@o#+",
"-*###@#O$:,,,:>*#:,,,,<&#:,>>>,$&>,<,,<*&:,>>,,$#:>>,>,&:-+$#@$#",
"-*+@##+%::>>>,>,,>,,>>>,>>>,,>>,,,,<,,,,>>>,<,>>>,,>>>>,;$OO#@$#",
"-*##@OO#***&%*&**=*-*=*--*=-*%=*;-*-*-;****---*-***-***-$$OO+@#X",
":*##@+@Oo%##@#O###%#@#+#%++##@+O$#@$#%$$%###%##$$$@+@#O%%#++++#O",
";*@#o#$+@@#+%#$@@+o##@@%@##@@@@$%#@+o+@@#+@##@$$#$X+##+$##%@###+",
"-###+@Oo##+#%+@%%Oo%$+@++@$##++#$$#O+@++o@%#+Oo+#O++#oo+XO#%#+@o",
";%#@#++o#$++%##@@OX##+#O@###+o$@#$+++O@Xo+@O#O+@+%@O+@###%%$$$$@",
":#@+OXO@o#O$#$@@@oo%$#%#@#$%#O%++#o+@XOO+##@+O@O+%O@+###@$%$%%%#",
"$XO+.oXoX+OoX.oXXX.XXXXooXOOXXXOXOoXoo..O@@oX+X.XOX.OoooooXoOXXX"
};
